<?xml version="1.0" encoding="utf-8"?>
<!-- Generator: Adobe Illustrator 25.4.0, SVG Export Plug-In . SVG Version: 6.00 Build 0)  -->
<svg version="1.1" id="Ebene_1" xmlns="http://www.w3.org/2000/svg" xmlns:xlink="http://www.w3.org/1999/xlink" x="0px" y="0px"
	 viewBox="0 0 600 600" style="enable-background:new 0 0 600 600;" xml:space="preserve">
<style type="text/css">
	.st0{fill:#FFFFFF;}
	.st1{clip-path:url(#SVGID_00000150080736120224261910000002795834857517448584_);}
	.st2{clip-path:url(#SVGID_00000155116863213288028690000015968744575600932744_);}
	.st3{fill:#2B2E34;}
</style>
<ellipse class="st0" cx="303.9" cy="291.4" rx="179.5" ry="177.4"/>
<g>
	<defs>
		<rect id="SVGID_1_" x="-128.8" y="36.5" width="869.7" height="869.7"/>
	</defs>
	<clipPath id="SVGID_00000097475466388097232050000010424727787433089468_">
		<use xlink:href="#SVGID_1_"  style="overflow:visible;"/>
	</clipPath>
	<g id="logo" style="clip-path:url(#SVGID_00000097475466388097232050000010424727787433089468_);">
		<g id="Gruppe_325" transform="translate(133.753 371.88)">
			<g>
				<defs>
					<rect id="SVGID_00000168099877671608895610000004837506231166290826_" x="-68.7" y="-268.7" width="481.9" height="736.2"/>
				</defs>
				<clipPath id="SVGID_00000124867035823493393280000003740237567193116037_">
					<use xlink:href="#SVGID_00000168099877671608895610000004837506231166290826_"  style="overflow:visible;"/>
				</clipPath>
				
					<g id="Gruppe_318" transform="translate(0 -325.846)" style="clip-path:url(#SVGID_00000124867035823493393280000003740237567193116037_);">
					<g id="Gruppe_310" transform="translate(34.796)">
						<path id="Pfad_218" class="st3" d="M231.5,401.9c63-37.3,99.8-106.8,95-179.9c-2.1-32.2-12.4-64.3-30.6-91.1
							C276,101.6,246,80.6,212.6,69.5C174.4,56.9,130.4,52.6,91.2,63c-41.4,11-78,37.6-104,71.4c-26.9,35-41.9,77.7-40.2,122
							c1.6,41.7,18.6,80.8,44.8,112.9c24.2,29.6,56.6,51.4,94.6,58.5c22.9,4.2,46.2,2.8,69-1.3C181.9,421.7,208,415.4,231.5,401.9
							c9.6-5.5-0.8-19.1-10.3-13.7c-19,10.9-40.8,16.1-62.2,20.2c-19.3,3.6-38.7,6.1-58.3,4c-31.8-3.3-60.4-17.7-83.1-40.1
							c-24.6-24.3-43.4-56.5-50.3-90.5c-8.2-41.1-0.5-83.9,21.4-119.6C9,129.1,39.5,101.5,75.3,86.5c35.8-15,75.5-14.4,113-6
							c31.1,7,61,21.8,82.3,45.9c19.7,22.2,32,50.3,36.8,79.5c12.1,73.4-22.7,144.6-86.2,182.4C211.7,393.9,222.1,407.6,231.5,401.9
							"/>
					</g>
					<g id="Gruppe_311" transform="translate(185.677 45.936)">
						<path id="Pfad_219" class="st3" d="M16.8,105.5c0.5,2.5,1.2,5.1,1.8,7.6c0.4,1.5,0.9,3,1.4,4.4c0.4,1.2,0.9,2.4,1.5,3.5
							c0.6,1.1,1.2,2.2,1.8,3.3c0.2,0.4,0.5,0.8,0.8,1.2c0.2,0.3,0.5,0.7,0.8,1c0.1,0.1,0.2,0.3,0.4,0.4c0.6,0.7,1.2,1.3,1.9,1.9
							c0.2,0.2,0.5,0.4,0.7,0.6c0.1,0,0.1,0.1,0.2,0.1c0.7,0.4,1.4,0.8,2,1.2c0.1,0.1,0.2,0.1,0.3,0.2c0.1,0,0.2,0.1,0.3,0.1
							c0.8,0.2,1.5,0.5,2.3,0.7l0.2,0c0.1,0,0.2,0,0.3,0c0,0,0.1,0,0.1,0c0.8,0,1.6,0.1,2.4,0c0.1,0,0.1,0,0.2,0c0.1,0,0.2,0,0.3,0
							c0.9-0.2,1.7-0.4,2.5-0.7c0,0,0.1,0,0.1-0.1l0.1,0c0.7-0.3,1.4-0.7,2-1.1c0.1-0.1,0.2-0.1,0.3-0.2c0,0,0.1-0.1,0.1-0.1
							c0.6-0.5,1.1-1.1,1.7-1.6c0.1-0.1,0.2-0.2,0.2-0.3c0.1-0.1,0.1-0.2,0.2-0.3c0.5-0.7,0.9-1.4,1.3-2.2c0.1-0.3,0.3-0.5,0.4-0.8
							c0.1-0.1,0.1-0.3,0.1-0.5c0.3-0.9,0.5-1.7,0.8-2.6c0.2-0.8,0.3-1.5,0.3-2.3c0-0.2,0-0.4,0-0.7c0-1,0.1-2,0-3
							c0-0.5,0-1-0.1-1.5c-0.1-1.1-0.2-2.2-0.5-3.4c-0.1-0.6-0.3-1.2-0.4-1.9c-0.3-1.4-0.7-2.8-1.1-4.1c-0.4-1.4-0.9-2.8-1.5-4.2
							c-0.6-1.6-1.3-3.1-2-4.6c-1.1-2.3-2.4-4.6-3.7-6.8c-1-1.8-2.2-3.5-3.3-5.2c-0.6-0.9-1.2-1.8-1.9-2.6c-0.6-0.9-1.5-1.6-2.5-2.1
							c-0.9-0.7-2-1.1-3.1-1.2c-1.1-0.2-2.3-0.1-3.4,0.2c-1.1,0.2-2.2,0.7-3.1,1.4l-1.6,1.5c-0.9,1.1-1.5,2.5-1.7,3.9
							c-0.1,0.1-0.2,0.2-0.3,0.3c-0.4,0.6-0.8,1.3-1.1,1.9c-0.6,1.4-0.8,2.9-0.7,4.4c0.2,2.5,0.5,5,0.9,7.5
							C16,101.3,16.4,103.4,16.8,105.5"/>
					</g>
					<g id="Gruppe_312" transform="translate(109.48 63.271)">
						<path id="Pfad_220" class="st3" d="M-4.4,138.5c2.1-0.9,4-2.3,5.3-4.2c2.5-3.7,4.1-7.9,4.8-12.4c0.6-3.6,0.8-7.2,0.7-10.8
							c0-3.2-0.5-6.4-1.4-9.5c-0.4-1.2-0.8-2.5-1.5-3.6c-1-1.8-2.3-3.5-3.7-5.1c-0.5-3.7-3.4-6.7-7.1-7.3c-4.7-0.6-9,2.5-9.8,7.2
							c-1.6,9.3-2.5,18.8-2.6,28.2c0,4.7,0.4,10.3,3.5,14.1C-13.3,138.7-8.6,140.1-4.4,138.5"/>
					</g>
					<g id="Gruppe_313" transform="translate(118.076 187.678)">
						<path id="Pfad_221" class="st3" d="M-15.6,141.5C-15.4,141.5-15.4,141.5-15.6,141.5"/>
					</g>
					<g id="Gruppe_314" transform="translate(63.297 86.976)">
						<path id="Pfad_222" class="st3" d="M256.5,101.8c-0.1-0.2-1-1.8-1.1-2c0,0,0,0,0,0c-0.1-0.1-1.5-1.5-1.6-1.6l0,0c0,0,0,0,0,0
							c-0.1-0.1-1.8-1.1-1.9-1.1l-0.1,0c0,0,0,0,0,0c-0.3-0.1-1.9-0.6-2.2-0.6c-0.1,0-0.1,0-0.2,0c0,0-0.1,0-0.1,0
							c-0.8,0-1.6,0-2.3,0h-0.1c-0.1,0-0.2,0-0.3,0c-0.2,0-0.4,0.1-0.6,0.1c-1,0.2-2,0.5-3,0.8c-0.7,0.2-1.4,0.4-2.2,0.7
							c-1,0.3-1.9,0.7-2.9,1.1c-1.2,0.5-2.5,1-3.7,1.6c-1.5,0.7-3,1.4-4.5,2.1c-1.1,0.5-2.2,1.1-3.2,1.6
							c-25.3,11.9-51.3,22-77.9,30.4c-13.6,2.1-27.1,6.7-40.1,11c-1.9,0.6-3.9,1.3-5.8,2c-40,9.7-80.6,17.1-121.5,22.1
							c-0.5,0-1.1-0.1-1.6-0.1c-0.9-0.1-1.9-0.1-2.8-0.2c-0.4,0-0.8,0-1.2,0c-1.1,0-2.2-0.1-3.4-0.1c-0.6,0-1.2,0-1.8,0
							c-0.5,0-0.9,0.1-1.4,0.1c-0.2,0-0.4,0.1-0.5,0.1c-0.4,0.1-0.9,0.2-1.3,0.3c-0.4,0.1-0.9,0.2-1.3,0.3c-0.1,0-0.2,0.1-0.3,0.1
							l-0.1,0l0,0l0,0c-0.3,0.2-1.6,0.9-1.9,1.1c0,0-0.1,0-0.1,0.1l0,0l0,0c-0.1,0.1-1.5,1.5-1.6,1.5c0,0,0,0,0,0c0,0,0,0-0.1,0.1
							c-0.1,0.1-1.1,1.8-1.1,1.9l0,0c0,0,0,0,0,0c0,0.1-0.6,2.1-0.6,2.2c0,0,0,0,0,0c0,0.4-0.1,0.8,0,1.2c0,0.4,0,0.8,0,1.2
							c0,0,0,0,0,0s0,0,0,0c0,0,0.6,2.2,0.6,2.2c0,0,0,0.1,0,0.1c0.1,0.1,1,1.8,1.1,2c0,0,0,0,0,0c0,0,0,0,0,0c0,0,0,0,0,0
							c0,0,0,0,0,0c0.1,0.1,1.4,1.4,1.5,1.6l0,0c0.1,0.1,0.1,0.1,0.2,0.2l0,0c0.6,0.4,1.3,0.8,1.9,1.1l0.1,0c0.1,0,0.1,0.1,0.2,0.1
							c0.3,0.1,0.6,0.2,0.8,0.3c0.8,0.2,1.6,0.5,2.4,0.7c0.1,0,0.2,0,0.3,0.1c0.2,0.1,0.4,0.1,0.6,0.1c0.5,0.1,1,0.2,1.4,0.2
							c0.6,0.1,1.1,0.1,1.7,0.2c0.7,0.1,1.3,0.1,2,0.1c1.5,0.1,3,0.1,4.5,0.1c0.6,0,1.1,0,1.7-0.1c1.7,6.4,3.8,12.7,6.5,18.7
							c7,16,16.5,33.1,30.7,43.8c6.9,5.2,15.2,8.6,24,7.7c10-1,18.3-7.6,24.4-15.2c3-3.8,5.5-8,7.4-12.5c2.5,5,5.5,9.7,8.8,14.1
							c12.7,16.5,31.3,24.6,52,21.5c28.9-4.4,48.4-29.7,50.8-57.8c4.5,3.2,9.6,5.5,14.9,6.8c10.5,2.5,21.5-0.7,29-8.4
							c9.2-9.3,11.4-23,11.2-35.5c-0.2-16.1-3.8-32.6-9.1-48c0.4-0.2,0.8-0.3,1.2-0.5c1.4-0.6,2.7-1.1,4.1-1.7
							c1.2-0.5,2.5-1.1,3.7-1.7c1.1-0.5,2.1-1,3.2-1.6c1.6-0.8,3.1-1.7,4.6-2.6c0.7-0.4,1.5-0.9,2.2-1.3c0.6-0.4,1.1-0.7,1.6-1.2
							c0.2-0.2,0.4-0.3,0.6-0.5c0.1-0.1,0.2-0.1,0.3-0.2c0.6-0.6,1.2-1.1,1.8-1.7c0.1-0.1,0.2-0.2,0.3-0.4c0,0,0-0.1,0.1-0.1
							c0.3-0.5,0.9-1.4,1.2-1.9c0,0,0,0,0,0c0,0,0-0.1,0.1-0.1c0.1-0.2,0.6-2,0.6-2.2c0,0,0,0,0,0c0,0,0,0,0-0.1
							C257.3,104.8,257.1,103.2,256.5,101.8C256.5,101.8,256.5,101.8,256.5,101.8 M9.9,214.6C9.7,214.3,9.5,213.9,9.9,214.6
							 M57.3,226.8c-0.3,0.6-0.6,1.2-0.9,1.8c-0.1,0.2-0.3,0.5-0.4,0.8c-0.6,0.9-1.2,1.7-1.8,2.6c-0.7,0.9-1.4,1.8-2.1,2.6
							c-0.4,0.4-0.8,0.9-1.2,1.3c-0.1,0.1-0.6,0.6-0.9,0.9c-0.4,0.3-1.3,1.2-1.5,1.4c-0.8,0.6-1.5,1.2-2.3,1.8
							c-0.4,0.3-0.8,0.5-1,0.6c-0.7,0.4-1.4,0.7-2.2,1c-0.2,0.1-0.9,0.3-1.3,0.4c-0.4,0.1-0.9,0.2-1.1,0.2c-0.8,0.1-1.5,0.1-2.3,0.2
							c0.5,0,0.7-0.1,0.9-0.1c-0.4,0-0.9,0-1.3,0c-0.8-0.1-1.5-0.3-2.2-0.4c0,0,0,0-0.1,0c-1.5-0.6-2.9-1.3-4.3-2
							c-0.2-0.2-0.5-0.3-0.7-0.5c-0.6-0.4-1.3-0.9-1.9-1.4c-1.4-1.1-2.8-2.3-4.1-3.5c-0.4-0.4-2.3-2.4-0.7-0.6
							c-0.6-0.7-1.3-1.4-1.9-2.1c-1.3-1.5-2.5-3-3.7-4.6c-2.3-3.1-4.5-6.3-6.5-9.6c-0.5-0.9-1-1.8-1.6-2.7c0,0,0-0.1-0.1-0.1
							c-0.1-0.2-0.2-0.4-0.3-0.6c-1-1.8-1.9-3.6-2.8-5.4c-3.5-6.8-6.4-13.9-8.7-21.2c-0.2-0.5-0.3-1.1-0.5-1.6
							c10.2-1.7,20.3-3.7,30.5-5.2c6.5-1,13.1-1.7,19.7-2c1.6-0.1,3.1-0.1,4.7-0.1c-1.3,0,1.6,0.1,2.1,0.1c0.4,0,0.8,0.1,1.2,0.1
							c0.4,1.7,0.8,3.4,1.3,5.3c1.6,6.3,3.4,12.6,5.3,18.8C62.1,210.9,60.6,219.8,57.3,226.8 M141.8,247.8
							c-3.9,1.5-8.1,2.4-12.3,2.7c-3.3,0.5-6.6,0.4-9.8-0.2c-6.5-0.9-12.5-3.8-17.2-8.3c-7-6.2-12.8-16.3-16.9-25.5
							c-2.3-5.2-4.2-10.6-6-16c0.2-8.5-0.4-17.6-3.4-25.4c9.6-3.7,19.3-7.3,29.1-10.6c15.6-3.8,31.1-8.1,46.4-12.9
							c2.7,7.8,5.7,15.4,9.1,23c1,2.2,2,4.3,3,6.5c1,2.9,1.9,5.9,2.8,8.9C172.4,211.5,163.9,239.1,141.8,247.8 M197.3,196.7
							C197.5,196.8,197.5,196.8,197.3,196.7 M222.8,183.6c-0.2,1.1-0.5,2.3-0.8,3.4c-0.1,0.2-0.7,2.1-0.9,2.5
							c-0.4,1-0.9,1.9-1.3,2.8c-0.1,0.1-0.2,0.4-0.3,0.6c-0.2,0.4-0.5,0.7-0.7,1.1c-0.6,0.8-1.2,1.5-1.9,2.2c-0.3,0.3-0.7,0.6-1,0.9
							c-0.6,0.5-1.2,0.9-1.8,1.3c-0.5,0.2-1,0.5-1.5,0.7c-0.7,0.3-3.5,0.8-0.9,0.4c-0.8,0.1-1.6,0.3-2.4,0.4
							c-0.6,0.1-1.1,0.1-1.7,0.1c0.9-0.1-1.8-0.1-2.4-0.2c-0.7-0.1-1.4-0.3-2.2-0.5c-0.1,0-1.2-0.4-1.8-0.6
							c-0.9-0.4-1.7-0.7-2.6-1.2c-0.5-0.2-0.9-0.5-1.4-0.7c-0.2-0.1-0.5-0.3-0.7-0.5c-1.8-1.3-3.6-2.7-5.3-4.2c-0.3-0.3-0.7-0.6-1-1
							c-0.1-0.1-0.3-0.3-0.4-0.4c-1-1.2-2.1-2.4-3-3.6c-0.9-1.2-1.8-2.4-2.6-3.7c-0.4-0.6-0.8-1.2-1.1-1.8c-0.1-0.2-0.2-0.3-0.3-0.4
							c-0.1-0.1-0.2-0.4-0.3-0.7c-0.6-1.2-1.2-2.5-1.8-3.7c-2.3-6.9-5.1-13.6-7.7-19.9c-1.2-2.9-2.5-5.8-3.7-8.6
							c4.7-1.9,9.3-3.7,14-5.5c10.7-4.2,21.4-8.4,32.1-12.6c4,11.8,6.6,24.1,7.8,36.5C223.9,172.2,223.8,178,222.8,183.6"/>
					</g>
				</g>
			</g>
			<g>
				<defs>
					<rect id="SVGID_00000173139910364918485160000002101719267815933623_" x="-68.7" y="-268.7" width="481.9" height="736.2"/>
				</defs>
				<clipPath id="SVGID_00000142882132333397333560000014187509057575792259_">
					<use xlink:href="#SVGID_00000173139910364918485160000002101719267815933623_"  style="overflow:visible;"/>
				</clipPath>
			</g>
		</g>
	</g>
</g>
</svg>
