<svg xmlns="http://www.w3.org/2000/svg" xmlns:xlink="http://www.w3.org/1999/xlink" width="600" height="600" viewBox="0 0 600 600">
  <defs>
    <clipPath id="clip-path">
      <path id="Pfad_226" data-name="Pfad 226" d="M0,182.085H332.493V-325.846H0Z" transform="translate(0 325.846)" fill="none"/>
    </clipPath>
    <clipPath id="clip-logo">
      <rect width="600" height="600"/>
    </clipPath>
  </defs>
  <g id="logo" clip-path="url(#clip-logo)">
    <rect width="600" height="600" fill="#fff"/>
    <g id="Gruppe_325" data-name="Gruppe 325" transform="translate(133.753 371.88)">
      <g id="Gruppe_318" data-name="Gruppe 318" transform="translate(0 -325.846)" clip-path="url(#clip-path)">
        <g id="Gruppe_310" data-name="Gruppe 310" transform="translate(34.796)">
          <path id="Pfad_218" data-name="Pfad 218" d="M70.385,85.276A134.159,134.159,0,0,0,135.937-38.852c-1.457-22.249-8.573-44.373-21.125-62.865C101.082-121.944,80.375-136.4,57.3-144.056,30.977-152.79.58-155.741-26.423-148.587c-28.559,7.565-53.813,25.96-71.718,49.241-18.562,24.135-28.885,53.639-27.727,84.185,1.086,28.751,12.818,55.769,30.9,77.883C-78.254,83.17-55.894,98.2-29.686,103.051c15.789,2.92,31.859,1.941,47.576-.865,18.257-3.258,36.269-7.66,52.494-16.91,6.6-3.765-.567-13.2-7.122-9.468C50.125,83.3,35.084,86.945,20.349,89.721,7.043,92.226-6.321,93.908-19.861,92.5c-21.942-2.287-41.664-12.185-57.3-27.639C-94.132,48.075-107.1,25.894-111.841,2.442A114.908,114.908,0,0,1-97.068-80.087c13.917-22.849,34.931-41.905,59.682-52.293,24.727-10.379,52.1-9.92,77.943-4.111,21.429,4.815,42.075,15.046,56.811,31.638,13.576,15.287,22.052,34.733,25.365,54.826C131.08.6,107.082,49.726,63.263,75.807c-6.538,3.892.62,13.339,7.122,9.468" transform="translate(125.955 152.603)" fill="#2b2e34"/>
        </g>
        <g id="Gruppe_311" data-name="Gruppe 311" transform="translate(185.677 45.936)">
          <path id="Pfad_219" data-name="Pfad 219" d="M.509,6.857c.362,1.758.8,3.5,1.275,5.233.285,1.03.606,2.053.976,3.057a25.03,25.03,0,0,0,1.029,2.419c.388.783.834,1.54,1.269,2.295.165.284.34.564.527.836.162.235.334.465.518.683.083.1.167.195.256.29.424.454.854.906,1.306,1.333a4.3,4.3,0,0,0,.5.408c.039.028.079.055.122.081.463.295.937.578,1.414.851a2.263,2.263,0,0,0,.237.122,2.313,2.313,0,0,0,.232.09c.518.168,1.052.323,1.579.46l.114.025a1.766,1.766,0,0,0,.22.028c.017,0,.036,0,.055,0,.532.02,1.1.041,1.634.028.037,0,.073,0,.111-.006a1.568,1.568,0,0,0,.206-.033,11.987,11.987,0,0,0,1.729-.454c.033-.014.065-.028.1-.044l.048-.023c.457-.237.934-.514,1.375-.779a1.807,1.807,0,0,0,.185-.122c.028-.023.058-.047.086-.072.407-.355.784-.75,1.163-1.132.056-.056.111-.115.162-.176s.1-.134.151-.206c.329-.493.631-1,.917-1.521a4.024,4.024,0,0,0,.248-.547c.037-.1.073-.206.1-.312.181-.6.371-1.2.518-1.8a8.815,8.815,0,0,0,.221-1.59c.008-.156.014-.31.017-.466.012-.683.039-1.367.028-2.051q-.009-.512-.051-1.024a20.332,20.332,0,0,0-.323-2.313q-.124-.645-.284-1.283c-.235-.956-.471-1.916-.75-2.86-.291-.987-.63-1.956-1.005-2.913Q18.083,1.755,17.316.2c-.784-1.6-1.665-3.161-2.569-4.7q-1.08-1.838-2.291-3.59Q11.829-9,11.17-9.892a4.471,4.471,0,0,0-1.708-1.475,4.455,4.455,0,0,0-2.123-.82,4.482,4.482,0,0,0-2.358.168,4.41,4.41,0,0,0-2.106.952L1.79-10.007A5.921,5.921,0,0,0,.6-7.3c-.072.081-.162.14-.232.226-.259.433-.521.865-.781,1.3A5.879,5.879,0,0,0-.871-2.717C-.708-1-.509.723-.259,2.435c.217,1.481.468,2.957.768,4.422" transform="translate(0.911 12.271)" fill="#2b2e34"/>
        </g>
        <g id="Gruppe_312" data-name="Gruppe 312" transform="translate(109.48 63.271)">
          <path id="Pfad_220" data-name="Pfad 220" d="M3.738,13.081a8.434,8.434,0,0,0,3.687-2.923,21.377,21.377,0,0,0,3.341-8.524,41.156,41.156,0,0,0,.494-7.457,23.324,23.324,0,0,0-.942-6.549A11.782,11.782,0,0,0,9.3-14.851a17.409,17.409,0,0,0-2.542-3.484A5.9,5.9,0,0,0,1.84-23.37a6.035,6.035,0,0,0-6.759,4.952A121.744,121.744,0,0,0-6.689,1.053c.017,3.25.277,7.1,2.4,9.741a7.009,7.009,0,0,0,8.029,2.287" transform="translate(6.69 23.409)" fill="#2b2e34"/>
        </g>
        <g id="Gruppe_313" data-name="Gruppe 313" transform="translate(118.076 187.678)">
          <path id="Pfad_221" data-name="Pfad 221" d="M0,0C.132,0,.162-.009,0,0" transform="translate(0 0.004)" fill="#2b2e34"/>
        </g>
        <g id="Gruppe_314" data-name="Gruppe 314" transform="translate(63.297 86.976)">
          <path id="Pfad_222" data-name="Pfad 222" d="M73.4,1.365c-.056-.123-.681-1.239-.764-1.35-.008-.009-.014-.02-.022-.03-.048-.064-1.007-1.044-1.071-1.094l-.014-.014a.1.1,0,0,1-.016-.011C71.42-1.2,70.3-1.878,70.2-1.924l-.042-.02a.089.089,0,0,1-.022-.006c-.195-.076-1.292-.39-1.5-.436a.772.772,0,0,0-.12-.02.53.53,0,0,0-.07,0c-.519-.028-1.1-.03-1.618-.03h-.041c-.058,0-.117,0-.176.009a3.783,3.783,0,0,0-.44.065c-.7.137-1.4.337-2.089.519-.505.134-1,.3-1.495.471-.675.238-1.341.5-2,.77-.851.348-1.7.715-2.535,1.093-1.041.468-2.073.954-3.1,1.45-.747.359-1.486.734-2.226,1.1A424.893,424.893,0,0,1-1.044,24.019c-9.395,1.42-18.69,4.619-27.686,7.557-1.344.44-2.67.926-4.009,1.373a738.318,738.318,0,0,1-83.836,15.272c-.366-.034-.734-.073-1.1-.1-.638-.05-1.277-.092-1.916-.12-.276-.012-.553-.022-.831-.028-.775-.019-1.549-.037-2.324-.037-.421,0-.843.008-1.264.033-.321.019-.641.045-.959.092-.122.019-.243.039-.365.065-.31.065-.625.156-.926.232s-.611.143-.909.234a1.968,1.968,0,0,0-.226.084l-.047.023-.022.011-.009.006c-.228.123-1.122.628-1.345.761-.023.016-.048.03-.072.047l-.03.026-.014.011c-.055.05-1.034,1.005-1.086,1.062,0,0,0,.006-.008.008a.612.612,0,0,0-.039.05c-.048.069-.753,1.233-.787,1.308l-.008.014a.187.187,0,0,1-.011.026c-.02.055-.422,1.429-.432,1.486a.048.048,0,0,1,0,.012,4.466,4.466,0,0,0-.016.82,8.185,8.185,0,0,0-.013.82s0,.009,0,.014,0,0,0,0c0,.028.385,1.517.393,1.546s.014.036.022.053c.048.1.7,1.255.764,1.348a.133.133,0,0,1,.009.016.3.3,0,0,0,.02.027.364.364,0,0,0,.023.028s0,0,.006.006c.094.1.96.988,1.063,1.088l.014.014a.946.946,0,0,0,.148.112l.02.014c.418.259.893.546,1.319.793l.05.028c.036.02.073.037.109.055a4.162,4.162,0,0,0,.578.218q.821.25,1.646.479c.064.019.126.034.19.051.14.036.281.067.421.1.327.069.658.125.99.171.391.055.784.1,1.177.131q.676.056,1.352.08c1.029.036,2.058.056,3.086.045.383,0,.767-.022,1.15-.039a83.945,83.945,0,0,0,4.5,12.915c4.835,11.019,11.4,22.854,21.194,30.233,4.75,3.579,10.489,5.95,16.528,5.33,6.885-.706,12.615-5.259,16.829-10.474a35.887,35.887,0,0,0,5.107-8.637,66.922,66.922,0,0,0,6.09,9.76c8.751,11.4,21.6,16.983,35.888,14.81C9.278,112.45,22.72,94.969,24.4,75.6a30.617,30.617,0,0,0,10.307,4.712A21.147,21.147,0,0,0,54.715,74.5c6.318-6.407,7.861-15.861,7.75-24.5-.143-11.111-2.653-22.511-6.287-33.132.271-.108.546-.206.817-.315q1.419-.573,2.823-1.191,1.277-.564,2.535-1.166,1.113-.533,2.207-1.107c1.076-.564,2.136-1.166,3.188-1.774.513-.3,1.023-.6,1.52-.929.387-.251.77-.513,1.136-.795.143-.109.285-.223.421-.341.059-.051.117-.1.173-.157.416-.39.829-.786,1.224-1.2a2.293,2.293,0,0,0,.218-.257c.014-.019.025-.037.037-.058.224-.343.6-.96.8-1.32,0-.009.009-.019.014-.026a.735.735,0,0,0,.044-.1c.048-.128.41-1.358.433-1.492,0-.008,0-.014.006-.022a.387.387,0,0,0,0-.042,6.168,6.168,0,0,0-.374-3.2.065.065,0,0,1-.006-.016M-96.736,79.221c-.14-.242-.265-.472,0,0m32.682,8.432c-.193.415-.41.818-.614,1.227-.055.109-.2.348-.3.521q-.592.9-1.244,1.761-.7.928-1.454,1.814c-.265.31-.533.614-.809.915-.064.07-.4.415-.6.631-.253.22-.895.807-1.063.948-.521.429-1.058.839-1.616,1.219-.259.176-.544.337-.711.43-.493.242-.977.491-1.495.687-.147.056-.594.187-.9.279-.292.055-.631.118-.751.132-.525.067-1.055.051-1.579.106.33-.034.513-.05.628-.058a5.252,5.252,0,0,1-.92-.031c-.521-.069-1.032-.229-1.551-.291-.025-.011-.03-.016-.059-.027-1.012-.429-1.989-.912-2.99-1.362-.165-.106-.33-.21-.493-.321-.444-.3-.879-.616-1.3-.94a34.536,34.536,0,0,1-2.825-2.422c-.293-.277-1.581-1.669-.449-.424-.444-.489-.9-.966-1.337-1.464-.9-1.023-1.754-2.081-2.577-3.163a77.345,77.345,0,0,1-4.5-6.633c-.368-.606-.72-1.224-1.088-1.832-.014-.023-.034-.061-.051-.092-.08-.14-.159-.279-.235-.421-.669-1.228-1.325-2.463-1.952-3.715A98.345,98.345,0,0,1-104.9,60.523c-.118-.377-.229-.758-.34-1.136,7.007-1.191,13.987-2.536,21.021-3.565a132.825,132.825,0,0,1,13.585-1.406c1.079-.045,2.159-.076,3.239-.065-.9-.009,1.09.051,1.431.075.285.019.567.065.851.09.254,1.166.553,2.369.873,3.64q1.651,6.554,3.687,13c-.212,5.535-1.224,11.66-3.5,16.5m58.3,14.486a31.535,31.535,0,0,1-8.46,1.857,20.5,20.5,0,0,1-6.764-.109,21.558,21.558,0,0,1-11.875-5.715c-4.862-4.279-8.834-11.216-11.66-17.622-1.584-3.591-2.923-7.286-4.165-11.008.151-5.855-.263-12.148-2.36-17.507,6.641-2.555,13.329-5.015,20.077-7.314q16.143-3.973,32-8.913,2.771,8.062,6.277,15.842,1.015,2.238,2.065,4.483c.678,2.03,1.334,4.068,1.9,6.129,4.061,14.777-1.8,33.857-17.036,39.877M32.555,66.894c.1.053.09.051,0,0M50.1,57.84c-.147.787-.33,1.573-.539,2.348-.078.161-.514,1.457-.617,1.71-.27.658-.594,1.284-.895,1.925-.047.1-.132.249-.212.382-.168.257-.335.514-.516.762-.4.546-.851,1.03-1.278,1.548-.238.2-.471.416-.719.609-.4.318-.832.589-1.258.873-.343.12-.681.316-1.021.451-.491.193-2.407.549-.608.268-.56.087-1.108.214-1.673.276-.394.042-.786.048-1.178.062.634-.055-1.247-.1-1.685-.167-.5-.081-.993-.206-1.486-.324-.056-.034-.859-.274-1.216-.416-.609-.242-1.2-.51-1.791-.8-.32-.159-.631-.334-.945-.505-.143-.083-.334-.2-.513-.32a32.342,32.342,0,0,1-3.624-2.874c-.238-.22-.471-.447-.7-.675-.092-.1-.195-.206-.243-.263-.706-.828-1.423-1.637-2.083-2.505q-.949-1.249-1.794-2.57-.4-.62-.776-1.252c-.087-.147-.134-.221-.185-.307s-.123-.248-.24-.472c-.433-.839-.806-1.708-1.219-2.558-1.61-4.734-3.54-9.364-5.312-13.708-.815-2-1.7-3.967-2.563-5.944q4.826-1.927,9.661-3.824,11.055-4.349,22.116-8.676a113.443,113.443,0,0,1,5.4,25.161A37.748,37.748,0,0,1,50.1,57.84" transform="translate(131.343 2.442)" fill="#2b2e34"/>
        </g>
        <g id="Gruppe_315" data-name="Gruppe 315" transform="translate(99.672 347.277)">
          <path id="Pfad_223" data-name="Pfad 223" d="M8.394,6.2C15.468-17.3-7.68-12.587-12.712-4.472-22.79,13.863,3.058,24.338,8.394,6.2" transform="translate(15.022 11.1)" fill="#6bb66c"/>
        </g>
        <g id="Gruppe_316" data-name="Gruppe 316" transform="translate(125.767 313.887)">
          <path id="Pfad_224" data-name="Pfad 224" d="M71.2,20.1c-2.853-2.288-4.839-.959-7.334.885-1.855,1.37-11.521,8.2-15.463,10.8-6.123,4.039-16.02,6.559-21.956-.084a16.377,16.377,0,0,1-2.418-3.942c2.192-1.735,19.223-15.647,24.18-22.625,5.75-7.972,8.043-19.033,6.874-25.3C52.653-33.827,39.668-38.8,27.194-34.439c-8.45,2.955-14.751,8.132-19.275,17.808A56.816,56.816,0,0,0,2.564,12.73a40.04,40.04,0,0,0,2.27,10.916s-3.448,3.743-17.526,9.8c-21.734,9.347-24-.38-24-.38C-25.239,28.016-2.532,8.738-3.77-10.323-4.716-24.912-12.381-33.376-25.224-32.4c-9.984.761-20.813,7.976-26.115,17.247q-7.15,12.638-7.144,29.38a33.309,33.309,0,0,0,1.517,11.333,161.057,161.057,0,0,1-24.576,8.145c-13.021,3.255-16.247.326-16.247.326-1.867-.1,10.215-17.968,21.783-29.427,4.882-4.839,9.153-13.281,12.234-15.929,2.02-2.065,3.972-4.146,3.7-6.232-.447-3.365-.235-4.252-2.72-7.278s-5.554-3.331-8.534-3.331A16.448,16.448,0,0,0-76.248-27.1,21.581,21.581,0,0,1-81.164-25.9s-14.266,2.287-25.008,2.72c-1.292.053-7.657-.3-9.643-.491-2.383-.377-6.355-.636-7.973.274-3.471,1.953-3.86,2.583-3.364,7.7.393,4.051-2.251,7.217,3.69,8.9,2.765.784,5.523-.3,9.73-1.2a227.217,227.217,0,0,1,30.59-3.825L-117.46,31.76a52.157,52.157,0,0,1-4.173,3.688,8.706,8.706,0,0,0-2.98,5.4,9.821,9.821,0,0,0-.15,1.7c0,3.03-1.051,10.151,9.917,11.5,1.578.193,3.124-1.311,5.362-1.417A184.473,184.473,0,0,0-52.068,40c5.941,10.835,18.279,12.779,26.518,12.534,11.573-.343,24.919-7.384,36.266-15.021,6.142,10.4,17.17,13.329,25.4,13.141,18.713,1.009,32.277-17.222,34.774-20.141,1.838-2.148,3.157-8.12.31-10.413M-37.487-8.663c3.8-4.69,8.042-8.463,12.371-8.463,3.788,0,5.437,3.4,5.437,7.086,0,4.07-1.977,10.5-6.305,15.7s-9.58,9.576-14.668,11c-2.477-5.9-2.477-18.342,3.166-25.321M33.229-23.479c3.788.011,6.46,3.634,6.439,7.325C39.635-10.4,36.075-2.9,29.031,3.9c-3.147,3.038-8.464,7.434-8.464,7.434-2.387-7.814-.193-34.85,12.662-34.811" transform="translate(127.408 35.976)" fill="#2b2e34"/>
        </g>
        <g id="Gruppe_317" data-name="Gruppe 317" transform="translate(2.35 321.696)">
          <path id="Pfad_225" data-name="Pfad 225" d="M32.109,19.837c-2.853-2.288-4.474-2.715-7.512-2.715a7.473,7.473,0,0,0-2.661.436c-2.156.881-2.645,2.6-3.947,4.924a30.88,30.88,0,0,1-3.663,4.68C13.316,28.53,7.373,34.237-4.2,33.135c-3.03-.288-9-4.193-10.386-8.1C-1.922,21.628,7.69,18.15,15.8,9.67c7.471-7.7,11.538-17.278,10.845-23.819C25.131-28.418,16.826-35.5,1.751-35.5q-2.85,0-5.886.29c-10.393,1.169-17.042,5.272-23.248,14.824-5.576,8.679-9.368,18.815-8.36,30.27.341,3.888-8.042,1.665-9.82.62a6.208,6.208,0,0,0-5.875-.19A7.449,7.449,0,0,0-53.618,11.9a13.994,13.994,0,0,0-3.761,8.7q-.552,5.455,2.714,7.347c3.35,1.88,13.839,3.074,22.3.8a50.8,50.8,0,0,0,4.026,8.043c5.45,7.9,11.331,12.69,20.779,13.839C14.279,53.29,23.075,41.56,24.888,39.816c5.166-4.976,9.244-8.14,10.259-11.845a8.152,8.152,0,0,0-3.038-8.134M-10.978-11.226q4.749-8.336,12.35-8.333,6.65,0,6.651,5.7,0,6.29-7.6,14.329C-4.647,5.835-10.3,7.128-16.258,8.591c-.761-7.216,1.1-12.407,5.28-19.817" transform="translate(57.459 35.498)" fill="#2b2e34"/>
        </g>
      </g>
      <g id="Gruppe_319" data-name="Gruppe 319" transform="translate(0 115.816)">
        <path id="Pfad_227" data-name="Pfad 227" d="M17.959,0,1.291,49.671H.655L-15.976,0H-32.139L-8.383,65.375H10.367L34.087,0Z" transform="translate(32.139)" fill="#6bb66c"/>
      </g>
      <g id="Gruppe_320" data-name="Gruppe 320" transform="translate(74.963 115.816)">
        <path id="Pfad_228" data-name="Pfad 228" d="M0,0V65.375H46.505v-11.4H14.55V38.37H43.983v-11.4H14.55V11.4H46.371V0Z" fill="#6bb66c"/>
      </g>
      <g id="Gruppe_322" data-name="Gruppe 322" transform="translate(0 -325.846)" clip-path="url(#clip-path)">
        <g id="Gruppe_321" data-name="Gruppe 321" transform="translate(132.187 440.77)">
          <path id="Pfad_229" data-name="Pfad 229" d="M16.792,7.9A14.182,14.182,0,0,0,14.809,3.76,12.456,12.456,0,0,0,11.7.7,14.217,14.217,0,0,0,7.535-1.232a18.647,18.647,0,0,0-5.158-.673A17.09,17.09,0,0,0-6.879.585a16.492,16.492,0,0,0-6.2,7.23,27.21,27.21,0,0,0-2.217,11.574A27.871,27.871,0,0,0-13.113,31a16.3,16.3,0,0,0,6.184,7.3,17.393,17.393,0,0,0,9.44,2.507,19.424,19.424,0,0,0,8.45-1.679,12.305,12.305,0,0,0,5.376-4.739A13.674,13.674,0,0,0,18.2,27.143l2.957.416H3.42V17.152h28.8v8.235a27.532,27.532,0,0,1-3.832,14.8A25.457,25.457,0,0,1,17.834,49.7,34.2,34.2,0,0,1,2.446,53.031a34.416,34.416,0,0,1-17-4.07A28.528,28.528,0,0,1-25.963,37.373a36.862,36.862,0,0,1-4.086-17.858A38.793,38.793,0,0,1-27.613,5.324a29.977,29.977,0,0,1,6.838-10.58,29.675,29.675,0,0,1,10.249-6.608A34.713,34.713,0,0,1,2.142-14.13,35.586,35.586,0,0,1,13.03-12.518a30.086,30.086,0,0,1,8.951,4.547,25.242,25.242,0,0,1,6.4,6.977A23.112,23.112,0,0,1,31.575,7.9Z" transform="translate(30.049 14.13)" fill="#6bb66c"/>
        </g>
      </g>
      <g id="Gruppe_323" data-name="Gruppe 323" transform="translate(199.967 115.816)">
        <path id="Pfad_231" data-name="Pfad 231" d="M8.516,0-15.24,65.375H.35L5.455,50.468H30.3L35.4,65.375h15.59L27.267,0Zm9.107,14.938h.538l8.455,24.741H9.149Z" transform="translate(15.24)" fill="#6bb66c"/>
      </g>
      <g id="Gruppe_324" data-name="Gruppe 324" transform="translate(274.935 115.816)">
        <path id="Pfad_232" data-name="Pfad 232" d="M15.443,0V41.115h-.6L-14.865,0h-12.77V65.375h14.55V24.229h.5L17.357,65.375H29.924V0Z" transform="translate(27.635)" fill="#6bb66c"/>
      </g>
    </g>
  </g>
</svg>
