<?xml version="1.0" encoding="utf-8"?>
<!-- Generator: Adobe Illustrator 25.4.0, SVG Export Plug-In . SVG Version: 6.00 Build 0)  -->
<svg version="1.1" id="Ebene_1" xmlns="http://www.w3.org/2000/svg" xmlns:xlink="http://www.w3.org/1999/xlink" x="0px" y="0px"
	 viewBox="0 0 600 600" style="enable-background:new 0 0 600 600;" xml:space="preserve">
<style type="text/css">
	.st0{fill:#FFFFFF;}
	.st1{clip-path:url(#SVGID_00000171695553025808558870000008759292847744869003_);}
	.st2{clip-path:url(#SVGID_00000118355683383502488310000016989895377995703706_);}
	.st3{fill:#2B2E34;}
</style>
<ellipse class="st0" cx="306.1" cy="290" rx="187.7" ry="181.2"/>
<g>
	<defs>
		<rect id="SVGID_1_" x="-140" y="30" width="892.6" height="892.6"/>
	</defs>
	<clipPath id="SVGID_00000042729992028670996300000012057624948450446473_">
		<use xlink:href="#SVGID_1_"  style="overflow:visible;"/>
	</clipPath>
	<g id="logo" style="clip-path:url(#SVGID_00000042729992028670996300000012057624948450446473_);">
		<g id="Gruppe_325" transform="translate(133.753 371.88)">
			<g>
				<defs>
					<rect id="SVGID_00000088106533941674124420000001650015354788303283_" x="-74.8" y="-273.4" width="494.7" height="755.7"/>
				</defs>
				<clipPath id="SVGID_00000094576454652885251700000001275346762426404224_">
					<use xlink:href="#SVGID_00000088106533941674124420000001650015354788303283_"  style="overflow:visible;"/>
				</clipPath>
				
					<g id="Gruppe_318" transform="translate(0 -325.846)" style="clip-path:url(#SVGID_00000094576454652885251700000001275346762426404224_);">
					<g id="Gruppe_310" transform="translate(34.796)">
						<path id="Pfad_218" class="st3" d="M234.3,406.4c64.7-38.3,102.4-109.7,97.5-184.7c-2.2-33.1-12.8-66-31.4-93.5
							c-20.4-30.1-51.2-51.6-85.6-63c-39.2-13-84.4-17.4-124.6-6.7C47.8,69.7,10.2,97-16.4,131.7c-27.6,35.9-43,79.8-41.3,125.2
							c1.6,42.8,19.1,83,46,115.9c24.9,30.4,58.1,52.8,97.1,60c23.5,4.3,47.4,2.9,70.8-1.3C183.4,426.7,210.2,420.1,234.3,406.4
							c9.8-5.6-0.8-19.6-10.6-14.1c-19.5,11.1-41.9,16.6-63.8,20.7c-19.8,3.7-39.7,6.2-59.8,4.1c-32.6-3.4-62-18.1-85.2-41.1
							c-25.2-25-44.5-58-51.6-92.9c-8.4-42.2-0.6-86.1,22-122.8c20.7-34,52-62.3,88.8-77.8c36.8-15.4,77.5-14.8,116-6.1
							c31.9,7.2,62.6,22.4,84.5,47.1c20.2,22.7,32.8,51.7,37.7,81.6c12.4,75.3-23.3,148.4-88.5,187.2
							C214,398.1,224.6,412.1,234.3,406.4"/>
					</g>
					<g id="Gruppe_311" transform="translate(185.677 45.936)">
						<path id="Pfad_219" class="st3" d="M17.9,103.3c0.5,2.6,1.2,5.2,1.9,7.8c0.4,1.5,0.9,3.1,1.5,4.5c0.4,1.2,1,2.4,1.5,3.6
							c0.6,1.2,1.2,2.3,1.9,3.4c0.2,0.4,0.5,0.8,0.8,1.2c0.2,0.3,0.5,0.7,0.8,1c0.1,0.1,0.2,0.3,0.4,0.4c0.6,0.7,1.3,1.3,1.9,2
							c0.2,0.2,0.5,0.4,0.7,0.6c0.1,0,0.1,0.1,0.2,0.1c0.7,0.4,1.4,0.9,2.1,1.3c0.1,0.1,0.2,0.1,0.4,0.2c0.1,0.1,0.2,0.1,0.3,0.1
							c0.8,0.2,1.6,0.5,2.3,0.7l0.2,0c0.1,0,0.2,0,0.3,0c0,0,0.1,0,0.1,0c0.8,0,1.6,0.1,2.4,0c0.1,0,0.1,0,0.2,0c0.1,0,0.2,0,0.3,0
							c0.9-0.2,1.7-0.4,2.6-0.7c0,0,0.1,0,0.1-0.1l0.1,0c0.7-0.4,1.4-0.8,2-1.2c0.1-0.1,0.2-0.1,0.3-0.2c0,0,0.1-0.1,0.1-0.1
							c0.6-0.5,1.2-1.1,1.7-1.7c0.1-0.1,0.2-0.2,0.2-0.3c0.1-0.1,0.1-0.2,0.2-0.3c0.5-0.7,0.9-1.5,1.4-2.3c0.1-0.3,0.3-0.5,0.4-0.8
							c0.1-0.1,0.1-0.3,0.1-0.5c0.3-0.9,0.6-1.8,0.8-2.7c0.2-0.8,0.3-1.6,0.3-2.4c0-0.2,0-0.5,0-0.7c0-1,0.1-2,0-3.1
							c0-0.5,0-1-0.1-1.5c-0.1-1.2-0.3-2.3-0.5-3.4c-0.1-0.6-0.3-1.3-0.4-1.9c-0.3-1.4-0.7-2.9-1.1-4.3c-0.4-1.5-0.9-2.9-1.5-4.3
							c-0.6-1.6-1.3-3.2-2.1-4.7c-1.2-2.4-2.5-4.7-3.8-7c-1.1-1.8-2.2-3.6-3.4-5.3c-0.6-0.9-1.3-1.8-1.9-2.7
							c-0.6-0.9-1.5-1.7-2.5-2.2c-0.9-0.7-2-1.1-3.2-1.2c-1.2-0.2-2.4-0.1-3.5,0.2c-1.2,0.2-2.2,0.7-3.1,1.4l-1.6,1.6
							c-0.9,1.2-1.5,2.6-1.8,4c-0.1,0.1-0.2,0.2-0.3,0.3c-0.4,0.6-0.8,1.3-1.2,1.9c-0.6,1.4-0.9,3-0.7,4.5c0.2,2.6,0.5,5.1,0.9,7.7
							C17.1,98.9,17.5,101.1,17.9,103.3"/>
					</g>
					<g id="Gruppe_312" transform="translate(109.48 63.271)">
						<path id="Pfad_220" class="st3" d="M-5.9,137.6c2.2-0.9,4.1-2.4,5.5-4.3c2.6-3.8,4.2-8.1,5-12.7c0.6-3.7,0.8-7.4,0.7-11.1
							c0-3.3-0.5-6.6-1.4-9.7c-0.4-1.3-0.9-2.5-1.5-3.7c-1-1.9-2.3-3.6-3.8-5.2C-1.9,87-4.9,84-8.7,83.4c-4.8-0.7-9.2,2.6-10.1,7.4
							c-1.7,9.6-2.5,19.3-2.6,29c0,4.8,0.4,10.6,3.6,14.5C-15,137.8-10.2,139.2-5.9,137.6"/>
					</g>
					<g id="Gruppe_313" transform="translate(118.076 187.678)">
						<path id="Pfad_221" class="st3" d="M-17.2,144C-17,144-16.9,144-17.2,144"/>
					</g>
					<g id="Gruppe_314" transform="translate(63.297 86.976)">
						<path id="Pfad_222" class="st3" d="M260.7,100.5c-0.1-0.2-1-1.8-1.1-2c0,0,0,0,0,0c-0.1-0.1-1.5-1.6-1.6-1.6l0,0c0,0,0,0,0,0
							c-0.1-0.1-1.8-1.1-2-1.2l-0.1,0c0,0,0,0,0,0c-0.3-0.1-1.9-0.6-2.2-0.6c-0.1,0-0.1,0-0.2,0c0,0-0.1,0-0.1,0c-0.8,0-1.6,0-2.4,0
							h-0.1c-0.1,0-0.2,0-0.3,0c-0.2,0-0.4,0.1-0.7,0.1c-1,0.2-2.1,0.5-3.1,0.8c-0.8,0.2-1.5,0.4-2.2,0.7c-1,0.4-2,0.7-3,1.1
							c-1.3,0.5-2.5,1.1-3.8,1.6c-1.5,0.7-3.1,1.4-4.6,2.2c-1.1,0.5-2.2,1.1-3.3,1.6c-25.9,12.2-52.7,22.6-80,31.2
							c-14,2.1-27.8,6.9-41.2,11.2c-2,0.7-4,1.4-6,2c-41.1,10-82.7,17.6-124.7,22.7c-0.5-0.1-1.1-0.1-1.6-0.1
							c-0.9-0.1-1.9-0.1-2.9-0.2c-0.4,0-0.8,0-1.2,0c-1.2,0-2.3-0.1-3.5-0.1c-0.6,0-1.3,0-1.9,0c-0.5,0-1,0.1-1.4,0.1
							c-0.2,0-0.4,0.1-0.5,0.1c-0.5,0.1-0.9,0.2-1.4,0.3c-0.4,0.1-0.9,0.2-1.4,0.3c-0.1,0-0.2,0.1-0.3,0.1l-0.1,0l0,0l0,0
							c-0.3,0.2-1.7,0.9-2,1.1c0,0-0.1,0-0.1,0.1l0,0l0,0c-0.1,0.1-1.5,1.5-1.6,1.6c0,0,0,0,0,0c0,0,0,0-0.1,0.1
							c-0.1,0.1-1.1,1.8-1.2,1.9l0,0c0,0,0,0,0,0c0,0.1-0.6,2.1-0.6,2.2c0,0,0,0,0,0c0,0.4-0.1,0.8,0,1.2c0,0.4,0,0.8,0,1.2
							c0,0,0,0,0,0c0,0,0,0,0,0c0,0,0.6,2.3,0.6,2.3c0,0,0,0.1,0,0.1c0.1,0.1,1,1.9,1.1,2c0,0,0,0,0,0c0,0,0,0,0,0c0,0,0,0,0,0
							c0,0,0,0,0,0c0.1,0.1,1.4,1.5,1.6,1.6l0,0c0.1,0.1,0.1,0.1,0.2,0.2l0,0c0.6,0.4,1.3,0.8,2,1.2l0.1,0c0.1,0,0.1,0.1,0.2,0.1
							c0.3,0.1,0.6,0.2,0.9,0.3c0.8,0.2,1.6,0.5,2.4,0.7c0.1,0,0.2,0.1,0.3,0.1c0.2,0.1,0.4,0.1,0.6,0.1c0.5,0.1,1,0.2,1.5,0.3
							c0.6,0.1,1.2,0.1,1.8,0.2c0.7,0.1,1.3,0.1,2,0.1c1.5,0.1,3.1,0.1,4.6,0.1c0.6,0,1.1,0,1.7-0.1c1.7,6.6,3.9,13,6.7,19.2
							c7.2,16.4,17,34,31.5,45c7.1,5.3,15.6,8.9,24.6,7.9c10.2-1.1,18.8-7.8,25-15.6c3.1-3.9,5.7-8.2,7.6-12.8
							c2.6,5.1,5.6,9.9,9.1,14.5c13,17,32.1,25.3,53.4,22c29.6-4.5,49.6-30.5,52.1-59.3c4.6,3.3,9.8,5.6,15.3,7
							c10.8,2.5,22.1-0.7,29.8-8.6c9.4-9.5,11.7-23.6,11.5-36.4c-0.2-16.5-3.9-33.5-9.4-49.3c0.4-0.2,0.8-0.3,1.2-0.5
							c1.4-0.6,2.8-1.2,4.2-1.8c1.3-0.6,2.5-1.1,3.8-1.7c1.1-0.5,2.2-1.1,3.3-1.6c1.6-0.8,3.2-1.7,4.7-2.6c0.8-0.4,1.5-0.9,2.3-1.4
							c0.6-0.4,1.1-0.8,1.7-1.2c0.2-0.2,0.4-0.3,0.6-0.5c0.1-0.1,0.2-0.1,0.3-0.2c0.6-0.6,1.2-1.2,1.8-1.8c0.1-0.1,0.2-0.2,0.3-0.4
							c0,0,0-0.1,0.1-0.1c0.3-0.5,0.9-1.4,1.2-2c0,0,0,0,0,0c0,0,0-0.1,0.1-0.1c0.1-0.2,0.6-2,0.6-2.2c0,0,0,0,0,0c0,0,0,0,0-0.1
							C261.5,103.7,261.3,102.1,260.7,100.5C260.7,100.5,260.7,100.5,260.7,100.5 M7.6,216.4C7.4,216,7.2,215.7,7.6,216.4
							 M56.2,228.9c-0.3,0.6-0.6,1.2-0.9,1.8c-0.1,0.2-0.3,0.5-0.4,0.8c-0.6,0.9-1.2,1.8-1.9,2.6c-0.7,0.9-1.4,1.8-2.2,2.7
							c-0.4,0.5-0.8,0.9-1.2,1.4c-0.1,0.1-0.6,0.6-0.9,0.9c-0.4,0.3-1.3,1.2-1.6,1.4c-0.8,0.6-1.6,1.2-2.4,1.8
							c-0.4,0.3-0.8,0.5-1.1,0.6c-0.7,0.4-1.5,0.7-2.2,1c-0.2,0.1-0.9,0.3-1.3,0.4c-0.4,0.1-0.9,0.2-1.1,0.2
							c-0.8,0.1-1.6,0.1-2.3,0.2c0.5-0.1,0.8-0.1,0.9-0.1c-0.5,0-0.9,0-1.4,0c-0.8-0.1-1.5-0.3-2.3-0.4c0,0,0,0-0.1,0
							c-1.5-0.6-3-1.4-4.4-2c-0.2-0.2-0.5-0.3-0.7-0.5c-0.7-0.4-1.3-0.9-1.9-1.4c-1.5-1.1-2.9-2.3-4.2-3.6c-0.4-0.4-2.4-2.5-0.7-0.6
							c-0.7-0.7-1.3-1.4-2-2.2c-1.3-1.5-2.6-3.1-3.8-4.7c-2.4-3.2-4.6-6.5-6.7-9.9c-0.5-0.9-1.1-1.8-1.6-2.7c0,0-0.1-0.1-0.1-0.1
							c-0.1-0.2-0.2-0.4-0.3-0.6c-1-1.8-2-3.7-2.9-5.5c-3.6-7-6.5-14.3-8.9-21.7c-0.2-0.6-0.3-1.1-0.5-1.7
							c10.4-1.8,20.8-3.8,31.3-5.3c6.7-1,13.4-1.7,20.2-2.1c1.6-0.1,3.2-0.1,4.8-0.1c-1.3,0,1.6,0.1,2.1,0.1c0.4,0,0.8,0.1,1.3,0.1
							c0.4,1.7,0.8,3.5,1.3,5.4c1.6,6.5,3.5,12.9,5.5,19.3C61.1,212.6,59.6,221.7,56.2,228.9 M142.9,250.5c-4,1.5-8.3,2.4-12.6,2.8
							c-3.3,0.5-6.7,0.4-10.1-0.2c-6.6-0.9-12.8-3.9-17.7-8.5c-7.2-6.4-13.1-16.7-17.3-26.2c-2.4-5.3-4.3-10.8-6.2-16.4
							c0.2-8.7-0.4-18.1-3.5-26c9.9-3.8,19.8-7.5,29.9-10.9c16-3.9,31.9-8.4,47.6-13.3c2.7,8,5.9,15.9,9.3,23.6c1,2.2,2,4.4,3.1,6.7
							c1,3,2,6.1,2.8,9.1C174.3,213.1,165.6,241.5,142.9,250.5 M199.9,198C200.1,198.1,200.1,198.1,199.9,198 M226,184.6
							c-0.2,1.2-0.5,2.3-0.8,3.5c-0.1,0.2-0.8,2.2-0.9,2.5c-0.4,1-0.9,1.9-1.3,2.9c-0.1,0.1-0.2,0.4-0.3,0.6
							c-0.2,0.4-0.5,0.8-0.8,1.1c-0.6,0.8-1.3,1.5-1.9,2.3c-0.4,0.3-0.7,0.6-1.1,0.9c-0.6,0.5-1.2,0.9-1.9,1.3
							c-0.5,0.2-1,0.5-1.5,0.7c-0.7,0.3-3.6,0.8-0.9,0.4c-0.8,0.1-1.6,0.3-2.5,0.4c-0.6,0.1-1.2,0.1-1.8,0.1
							c0.9-0.1-1.9-0.1-2.5-0.2c-0.7-0.1-1.5-0.3-2.2-0.5c-0.1-0.1-1.3-0.4-1.8-0.6c-0.9-0.4-1.8-0.8-2.7-1.2
							c-0.5-0.2-0.9-0.5-1.4-0.8c-0.2-0.1-0.5-0.3-0.8-0.5c-1.9-1.3-3.7-2.7-5.4-4.3c-0.4-0.3-0.7-0.7-1-1c-0.1-0.1-0.3-0.3-0.4-0.4
							c-1.1-1.2-2.1-2.4-3.1-3.7c-0.9-1.2-1.8-2.5-2.7-3.8c-0.4-0.6-0.8-1.2-1.2-1.9c-0.1-0.2-0.2-0.3-0.3-0.5
							c-0.1-0.1-0.2-0.4-0.4-0.7c-0.6-1.2-1.2-2.5-1.8-3.8c-2.4-7-5.3-13.9-7.9-20.4c-1.2-3-2.5-5.9-3.8-8.8
							c4.8-1.9,9.6-3.8,14.4-5.7c11-4.3,21.9-8.6,32.9-12.9c4.1,12.1,6.8,24.7,8,37.4C227.2,172.9,227.1,178.8,226,184.6"/>
					</g>
				</g>
			</g>
			<g>
				<defs>
					<rect id="SVGID_00000138549868636422370380000014660802409160679818_" x="-74.8" y="-273.4" width="494.7" height="755.7"/>
				</defs>
				<clipPath id="SVGID_00000001631654942204369660000001871017433969669803_">
					<use xlink:href="#SVGID_00000138549868636422370380000014660802409160679818_"  style="overflow:visible;"/>
				</clipPath>
			</g>
		</g>
	</g>
</g>
</svg>
