<?xml version="1.0" encoding="utf-8"?>
<!-- Generator: Adobe Illustrator 25.4.0, SVG Export Plug-In . SVG Version: 6.00 Build 0)  -->
<svg version="1.1" id="Ebene_1" xmlns="http://www.w3.org/2000/svg" xmlns:xlink="http://www.w3.org/1999/xlink" x="0px" y="0px"
	 viewBox="0 0 175.9 318" style="enable-background:new 0 0 175.9 318;" xml:space="preserve">
<style type="text/css">
	.st0{fill:#34A9E1;}
	.st1{fill:#34A9E1;stroke:#34A9E1;stroke-width:0.975;stroke-miterlimit:10;}
	.st2{fill:#34A9E1;stroke:#34A9E1;stroke-width:0.2325;stroke-miterlimit:10;}
	.st3{fill:none;stroke:#C75600;stroke-miterlimit:10;}
</style>
<g>
	<path class="st0" d="M58.9,300.2l-1,1c-0.4-0.4-0.8-0.6-1.1-0.6c-0.2,0-0.3,0-0.4,0.1s-0.2,0.2-0.2,0.3c0,0.1,0,0.2,0.1,0.2
		s0.2,0.2,0.5,0.3l0.6,0.3c0.6,0.3,1,0.6,1.3,0.9s0.3,0.7,0.3,1.1c0,0.6-0.2,1-0.6,1.4s-1,0.6-1.7,0.6c-0.9,0-1.7-0.4-2.2-1.1l1-1.1
		c0.2,0.2,0.4,0.4,0.7,0.5s0.5,0.2,0.7,0.2s0.4-0.1,0.5-0.2s0.2-0.2,0.2-0.4c0-0.2-0.2-0.5-0.7-0.7l-0.5-0.3c-1-0.5-1.5-1.2-1.5-2
		c0-0.5,0.2-0.9,0.6-1.3s0.9-0.5,1.5-0.5c0.4,0,0.8,0.1,1.2,0.3S58.7,299.9,58.9,300.2z"/>
	<path class="st0" d="M67.9,303h-5.1c0.1,0.5,0.3,0.8,0.6,1.1s0.7,0.4,1.2,0.4c0.6,0,1.1-0.2,1.5-0.6l1.3,0.6
		c-0.3,0.5-0.7,0.8-1.2,1.1s-1,0.3-1.7,0.3c-1,0-1.8-0.3-2.4-0.9s-0.9-1.4-0.9-2.4s0.3-1.8,0.9-2.4s1.4-1,2.4-1s1.8,0.3,2.4,1
		s0.9,1.5,0.9,2.5L67.9,303z M66.3,301.7c-0.1-0.4-0.3-0.6-0.6-0.9s-0.7-0.3-1.1-0.3s-0.8,0.1-1.2,0.4c-0.2,0.2-0.4,0.4-0.6,0.8
		H66.3z"/>
	<path class="st0" d="M71,296.7c0.3,0,0.5,0.1,0.7,0.3c0.2,0.2,0.3,0.4,0.3,0.7c0,0.3-0.1,0.5-0.3,0.7s-0.4,0.3-0.7,0.3
		c-0.3,0-0.5-0.1-0.7-0.3S70,298,70,297.7s0.1-0.5,0.3-0.7S70.8,296.7,71,296.7z M70.2,299.3h1.6v6.4h-1.6V299.3z"/>
	<path class="st0" d="M74.7,297h1.6v2.3h0.9v1.4h-0.9v5h-1.6v-5h-0.8v-1.4h0.8V297z"/>
	<path class="st0" d="M85,297.1h2.5v8.6h-1.6v-7.1h-1.8L85,297.1z"/>
	<path class="st0" d="M96.1,301c0.4,0.2,0.7,0.6,0.9,1c0.2,0.4,0.3,0.8,0.3,1.3s-0.1,1-0.4,1.4c-0.2,0.4-0.6,0.7-1,1s-1,0.3-1.6,0.3
		c-0.7,0-1.2-0.1-1.7-0.3s-0.7-0.5-1-0.9s-0.4-0.9-0.4-1.4s0.1-0.9,0.3-1.2c0.2-0.4,0.5-0.7,0.9-1c-0.3-0.3-0.5-0.5-0.6-0.8
		s-0.2-0.6-0.2-0.9c0-0.4,0.1-0.9,0.3-1.2s0.5-0.7,0.9-0.9s0.8-0.3,1.4-0.3c0.5,0,0.9,0.1,1.3,0.3s0.7,0.5,0.9,0.9s0.3,0.8,0.3,1.2
		c0,0.3-0.1,0.6-0.2,0.9S96.4,300.7,96.1,301z M94.3,301.9c-0.4,0-0.7,0.1-1,0.4s-0.4,0.5-0.4,0.9c0,0.3,0.1,0.6,0.4,0.9
		s0.6,0.4,1,0.4s0.8-0.1,1-0.3s0.4-0.5,0.4-0.9s-0.1-0.7-0.4-0.9S94.7,301.9,94.3,301.9z M94.3,298.4c-0.3,0-0.5,0.1-0.7,0.3
		c-0.2,0.2-0.3,0.4-0.3,0.7s0.1,0.5,0.3,0.7s0.4,0.3,0.7,0.3c0.3,0,0.5-0.1,0.7-0.3c0.2-0.2,0.3-0.4,0.3-0.7c0-0.3-0.1-0.5-0.3-0.7
		C94.8,298.5,94.6,298.4,94.3,298.4z"/>
	<path class="st0" d="M102.9,296.8h1.6v5.5h0.8v1.5h-0.8v1.8h-1.6v-1.8h-3.8v-1.5L102.9,296.8z M102.9,302.4v-2.9l-2,2.9H102.9z"/>
	<path class="st0" d="M110.1,296.8c0.6,0,1.2,0.2,1.6,0.5s0.8,0.8,1.1,1.4s0.4,1.5,0.4,2.7c0,1.1-0.1,2-0.4,2.7s-0.6,1.1-1,1.4
		s-1,0.4-1.6,0.4s-1.2-0.2-1.6-0.5s-0.8-0.8-1-1.4s-0.4-1.5-0.4-2.6c0-1.6,0.2-2.7,0.7-3.4C108.4,297.2,109.2,296.8,110.1,296.8z
		 M110.2,298.4c-0.3,0-0.5,0.1-0.7,0.3c-0.2,0.2-0.4,0.5-0.5,0.9s-0.2,1.1-0.2,1.9c0,1.1,0.1,1.8,0.4,2.3c0.3,0.4,0.6,0.6,1,0.6
		s0.7-0.2,0.9-0.6c0.3-0.5,0.4-1.3,0.4-2.4s-0.1-1.9-0.4-2.3C110.9,298.6,110.6,298.4,110.2,298.4z"/>
</g>
<g>
	<path class="st0" d="M17.8,251h6.7v13H36v-13h6.6v34.5H36v-15.1H24.5v15.1h-6.7V251z"/>
	<path class="st0" d="M62.2,251h6.7l13.3,34.5h-6.8l-2.7-7.1H58.6l-2.8,7.1H49L62.2,251z M65.6,260.2L61,272h9.2L65.6,260.2z"/>
	<path class="st0" d="M88.4,251H95v13h11.5v-13h6.6v34.5h-6.6v-15.1H95v15.1h-6.7L88.4,251L88.4,251z"/>
	<path class="st0" d="M122.3,251h6.3l14.8,22.7V251h6.6v34.5h-6.3L129,262.9v22.6h-6.6V251H122.3z"/>
</g>
<path class="st1" d="M145.5,51.4"/>
<path class="st0" d="M126.5,62.7c0,0-16.2-19.4-33.4-13.5s-29.7,28.4-10.1,58.2c18.6,28.4,31.7,74.2,2.9,132c0,0,1.3-0.7,3.4-2
	c14.1-8.4,67.5-42.6,65.2-85.8C151.9,102,110,97.2,110,76.6C110.1,58.2,126.5,62.7,126.5,62.7z"/>
<path class="st0" d="M113.6,48.8c0,0-14.8-5.2-20.3-12.6c-4.2-5.8-4.5-13.5,0.4-19.2c4.9-5.7,13.8-5.3,17.3,2.2c3.2,7.1-5,12.4-5,17
	C106.1,44.1,113.6,48.8,113.6,48.8z"/>
<path class="st0" d="M115.3,49.7c0,0-5.8-7.6-5.9-13.8c-0.1-4.9,3.8-9.3,8.7-9.4c4.9-0.1,9.3,3.1,7.8,8.6c-1.3,4.9-7.2,4.4-9.8,6.8
	C112.4,45.2,115.3,49.7,115.3,49.7z"/>
<ellipse class="st2" cx="123.3" cy="48" rx="5.6" ry="5.5"/>
<path class="st0" d="M129.8,90.3c3.8-1.2,6.3-5,5.9-9.1c-0.6-4.6-4.8-7.8-9.4-7.2c-1.4,0.2-2.6,0.7-3.7,1.5c-1.2,0.7-2.4,1.3-4,1.5
	c-5.2,0.7-5.6-5.6-5.6-5.6s-2.1,10.3,5.9,16.7c3.1,2.4,7,3.2,10.3,2.3C129.4,90.4,129.5,90.3,129.8,90.3
	C129.7,90.3,129.8,90.3,129.8,90.3z"/>
<path class="st0" d="M37.2,106.2c11.8-0.1,21.7,9.3,21.7,21.4c0.1,12.1-9.4,22-21.1,22.1c-11.8,0.1-21.4-9.6-21.5-21.8
	C16.3,115.9,25.5,106.3,37.2,106.2z"/>
<ellipse transform="matrix(0.9987 -5.088149e-02 5.088149e-02 0.9987 -8.6338 2.8493)" class="st0" cx="51.6" cy="171" rx="14.8" ry="15.7"/>
<ellipse transform="matrix(0.9983 -5.827665e-02 5.827665e-02 0.9983 -11.7158 4.061)" class="st0" cx="63.8" cy="202.9" rx="12.9" ry="13.2"/>
<path class="st0" d="M89.6,224.3c2.7-5.4,4.1-32.5-0.2-50.2c-11-35.2-30.7-29.8-43.4-25.6c-23.7,7.8-37.5-34.2-13.5-41.8
	c36.3-11.4,61.3,33.2,64.3,69.6c2.2,26.9-3.8,47.7-3.8,47.7c-0.9,4-5.6,13.8-6.1,14.3C86.2,238.8,87.4,228.6,89.6,224.3z"/>
<path class="st0" d="M88.2,235.5L88.2,235.5c1.1-2.8,2.3-68.5-29.1-50.8c-16.4,9.2-0.2-20.5-15.4-26.8c3-3.1,15.3-6.6,25.3,0.7
	C91.5,175,90.5,200.5,92,231C92.3,235.6,88.6,237.7,88.2,235.5z"/>
<path class="st0" d="M58,191.2c0,0,5.1-4.4,14.6,0.1c14.7,6.9,20.9,39.4,13.4,48c0,0,2.3-29.8-17.7-23.7
	c-11.4,3.4,6.8-14.6,5.2-16.1C65.7,192.6,58,191.2,58,191.2z"/>
<path class="st3" d="M95,300.2"/>
<path class="st3" d="M-22.8,52.1"/>
</svg>
