<?xml version="1.0" encoding="utf-8"?>
<!-- Generator: Adobe Illustrator 25.4.0, SVG Export Plug-In . SVG Version: 6.00 Build 0)  -->
<svg version="1.1" xmlns="http://www.w3.org/2000/svg" xmlns:xlink="http://www.w3.org/1999/xlink" x="0px" y="0px"
	 viewBox="0 0 175.9 318" style="enable-background:new 0 0 175.9 318;" xml:space="preserve">
<style type="text/css">
	.st0{fill:#34A9E1;}
	.st1{fill:#34A9E1;stroke:#34A9E1;stroke-miterlimit:10;}
	.st2{fill:#34A9E1;stroke:#34A9E1;stroke-width:0.2385;stroke-miterlimit:10;}
</style>
<g id="Ebene_1">
	<g>
		<path class="st0" d="M58.9,300.2l-1,1c-0.4-0.4-0.8-0.6-1.1-0.6c-0.2,0-0.3,0-0.4,0.1s-0.2,0.2-0.2,0.3c0,0.1,0,0.2,0.1,0.2
			s0.2,0.2,0.5,0.3l0.6,0.3c0.6,0.3,1,0.6,1.3,0.9s0.3,0.7,0.3,1.1c0,0.6-0.2,1-0.6,1.4s-1,0.6-1.7,0.6c-0.9,0-1.7-0.4-2.2-1.1
			l1-1.1c0.2,0.2,0.4,0.4,0.7,0.5s0.5,0.2,0.7,0.2c0.2,0,0.4-0.1,0.5-0.2s0.2-0.2,0.2-0.4c0-0.2-0.2-0.5-0.7-0.7l-0.5-0.3
			c-1-0.5-1.5-1.2-1.5-2c0-0.5,0.2-0.9,0.6-1.3s0.9-0.5,1.5-0.5c0.4,0,0.8,0.1,1.2,0.3S58.7,299.9,58.9,300.2z"/>
		<path class="st0" d="M67.9,303h-5.1c0.1,0.5,0.3,0.8,0.6,1.1s0.7,0.4,1.2,0.4c0.6,0,1.1-0.2,1.5-0.6l1.3,0.6
			c-0.3,0.5-0.7,0.8-1.2,1.1s-1,0.3-1.7,0.3c-1,0-1.8-0.3-2.4-0.9s-0.9-1.4-0.9-2.4c0-1,0.3-1.8,0.9-2.4s1.4-1,2.4-1
			c1,0,1.8,0.3,2.4,1s0.9,1.5,0.9,2.5L67.9,303z M66.3,301.7c-0.1-0.4-0.3-0.6-0.6-0.9s-0.7-0.3-1.1-0.3c-0.4,0-0.8,0.1-1.2,0.4
			c-0.2,0.2-0.4,0.4-0.6,0.8H66.3z"/>
		<path class="st0" d="M71,296.7c0.3,0,0.5,0.1,0.7,0.3c0.2,0.2,0.3,0.4,0.3,0.7c0,0.3-0.1,0.5-0.3,0.7s-0.4,0.3-0.7,0.3
			c-0.3,0-0.5-0.1-0.7-0.3S70,298,70,297.7c0-0.3,0.1-0.5,0.3-0.7S70.8,296.7,71,296.7z M70.2,299.3h1.6v6.4h-1.6V299.3z"/>
		<path class="st0" d="M74.7,297h1.6v2.3h0.9v1.4h-0.9v5h-1.6v-5h-0.8v-1.4h0.8V297z"/>
		<path class="st0" d="M85,297.1h2.5v8.6h-1.6v-7.1h-1.8L85,297.1z"/>
		<path class="st0" d="M96.1,301c0.4,0.2,0.7,0.6,0.9,1c0.2,0.4,0.3,0.8,0.3,1.3c0,0.5-0.1,1-0.4,1.4c-0.2,0.4-0.6,0.7-1,1
			s-1,0.3-1.6,0.3c-0.7,0-1.2-0.1-1.7-0.3s-0.7-0.5-1-0.9s-0.4-0.9-0.4-1.4c0-0.5,0.1-0.9,0.3-1.2c0.2-0.4,0.5-0.7,0.9-1
			c-0.3-0.3-0.5-0.5-0.6-0.8s-0.2-0.6-0.2-0.9c0-0.4,0.1-0.9,0.3-1.2s0.5-0.7,0.9-0.9s0.8-0.3,1.4-0.3c0.5,0,0.9,0.1,1.3,0.3
			s0.7,0.5,0.9,0.9s0.3,0.8,0.3,1.2c0,0.3-0.1,0.6-0.2,0.9S96.4,300.7,96.1,301z M94.3,301.9c-0.4,0-0.7,0.1-1,0.4s-0.4,0.5-0.4,0.9
			c0,0.3,0.1,0.6,0.4,0.9s0.6,0.4,1,0.4c0.4,0,0.8-0.1,1-0.3s0.4-0.5,0.4-0.9s-0.1-0.7-0.4-0.9S94.7,301.9,94.3,301.9z M94.3,298.4
			c-0.3,0-0.5,0.1-0.7,0.3c-0.2,0.2-0.3,0.4-0.3,0.7s0.1,0.5,0.3,0.7s0.4,0.3,0.7,0.3c0.3,0,0.5-0.1,0.7-0.3
			c0.2-0.2,0.3-0.4,0.3-0.7c0-0.3-0.1-0.5-0.3-0.7C94.8,298.5,94.6,298.4,94.3,298.4z"/>
		<path class="st0" d="M102.9,296.8h1.6v5.5h0.8v1.5h-0.8v1.8h-1.6v-1.8h-3.8v-1.5L102.9,296.8z M102.9,302.4v-2.9l-2,2.9H102.9z"/>
		<path class="st0" d="M110.1,296.8c0.6,0,1.2,0.2,1.6,0.5s0.8,0.8,1.1,1.4s0.4,1.5,0.4,2.7c0,1.1-0.1,2-0.4,2.7s-0.6,1.1-1,1.4
			s-1,0.4-1.6,0.4s-1.2-0.2-1.6-0.5s-0.8-0.8-1-1.4s-0.4-1.5-0.4-2.6c0-1.6,0.2-2.7,0.7-3.4C108.4,297.2,109.2,296.8,110.1,296.8z
			 M110.2,298.4c-0.3,0-0.5,0.1-0.7,0.3c-0.2,0.2-0.4,0.5-0.5,0.9c-0.1,0.4-0.2,1.1-0.2,1.9c0,1.1,0.1,1.8,0.4,2.3
			c0.3,0.4,0.6,0.6,1,0.6c0.4,0,0.7-0.2,0.9-0.6c0.3-0.5,0.4-1.3,0.4-2.4c0-1.1-0.1-1.9-0.4-2.3
			C110.9,298.6,110.6,298.4,110.2,298.4z"/>
	</g>
	<g>
		<path class="st0" d="M17.8,251h6.7v13H36v-13h6.6v34.5H36v-15.1H24.5v15.1h-6.7V251z"/>
		<path class="st0" d="M62.2,251h6.7l13.3,34.5h-6.8l-2.7-7.1H58.6l-2.8,7.1h-6.8L62.2,251z M65.6,260.2L61,272h9.2L65.6,260.2z"/>
		<path class="st0" d="M88.4,251H95v13h11.5v-13h6.6v34.5h-6.6v-15.1H95v15.1h-6.7V251z"/>
		<path class="st0" d="M122.3,251h6.3l14.8,22.7V251h6.6v34.5h-6.3l-14.7-22.6v22.6h-6.6V251z"/>
	</g>
	<path class="st1" d="M148.8,47.3"/>
	<path class="st0" d="M129.3,58.9c0,0-16.6-19.9-34.3-13.8s-27,29.1-10.4,59.7s32.5,76.1,3,135.4c0,0,1.3-0.7,3.5-2
		c14.5-8.6,69.2-43.7,66.9-88c-2.6-51-45.6-55.9-45.6-77.1C112.5,54.3,129.3,58.9,129.3,58.9z"/>
	<path class="st0" d="M116.1,44.6c0,0-15.2-4.8-20.8-11.6c-4.3-5.3-4.6-12.4,0.4-17.6s14.2-4.9,17.7,2c3.3,6.5-5.1,11.4-5.1,15.6
		C108.4,40.3,116.1,44.6,116.1,44.6z"/>
	<path class="st0" d="M117.9,45.5c0,0-5.9-7.8-6-14.2c-0.1-5,3.9-9.5,8.9-9.6c5-0.1,9.5,3.2,8,8.8c-1.3,5-7.4,4.5-10.1,7
		C114.9,40.9,117.9,45.5,117.9,45.5z"/>
	<ellipse class="st2" cx="126.1" cy="43.8" rx="5.7" ry="5.6"/>
	<path class="st0" d="M132.7,87.2c3.9-1.2,6.5-5.1,6-9.3c-0.6-4.7-4.9-8-9.6-7.4c-1.4,0.2-2.7,0.7-3.8,1.5c-1.2,0.7-2.5,1.3-4.1,1.5
		c-5.3,0.7-5.7-5.7-5.7-5.7s-2.2,10.6,6,17.1c3.2,2.5,7.2,3.3,10.6,2.4c0.2,0,0.3-0.1,0.5-0.1C132.6,87.2,132.7,87.2,132.7,87.2z"/>
</g>
<g id="Ebene_2">
	<circle class="st0" cx="45.3" cy="165.9" r="15.1"/>
	<circle class="st0" cx="54.1" cy="197" r="10.5"/>
	<circle class="st0" cx="63.6" cy="222.6" r="8.8"/>
	<path class="st0" d="M15.7,134.5c-3.8-9.2,1-19.9,10.7-23.9c9.7-4,1.8,4.5,5.6,13.7s17.8,15.6,8.2,19.6S19.5,143.7,15.7,134.5z"/>
	<path class="st0" d="M89.7,135.1c22.1,41.5-2,105.1-2,105.1S99,195.9,78.3,157c-9.1-17.1-29.8-16.2-38.2-13.1
		c-8.2,3-17.9-31-17.9-31C32.7,104.2,71.1,100.3,89.7,135.1z"/>
	<path class="st0" d="M88.4,237.1c-2.1,10.9,0.4-14.4-7.7-40.4c-7.6-24.3-30.5-16.6-30.5-16.6l-10.5-28.2c9.6-4.4,22.8-1.6,31.7,6.7
		C92.1,177.8,88.4,237.1,88.4,237.1z"/>
	<path class="st0" d="M74.3,195.2c8.9,16.4,12.9,36.1,13.3,43.2c0,0.2-0.2,0.2-0.2,0c-2.1-7.7-11.6-38.8-27.7-32.4
		c-11,4.4-14.7-17.3-8.7-19.1C58.5,184.8,69.6,186.5,74.3,195.2z"/>
	<path class="st0" d="M60.8,214.3c0,0,13.8-4.9,20.6,17.2c0,0-5.8-5.1-12.9-1.6C63.8,232,60.8,214.3,60.8,214.3z"/>
</g>
</svg>
