<?xml version="1.0" encoding="utf-8"?>
<!-- Generator: Adobe Illustrator 25.4.1, SVG Export Plug-In . SVG Version: 6.00 Build 0)  -->
<svg version="1.1" id="Ebene_1" xmlns="http://www.w3.org/2000/svg" xmlns:xlink="http://www.w3.org/1999/xlink" x="0px" y="0px"
	 viewBox="0 0 600 600" style="enable-background:new 0 0 600 600;" xml:space="preserve">
<style type="text/css">
	.st0{fill:#34A9E1;}
	.st1{fill:#34A9E1;stroke:#34A9E1;stroke-width:1.6015;stroke-miterlimit:10;}
	.st2{fill:#34A9E1;stroke:#34A9E1;stroke-width:0.3819;stroke-miterlimit:10;}
	.st3{fill:none;stroke:#C75600;stroke-width:1.6426;stroke-miterlimit:10;}
</style>
<g>
	<path class="st0" d="M256.4,531l-1.6,1.6c-0.7-0.7-1.3-1-1.8-1c-0.3,0-0.5,0-0.7,0.2s-0.3,0.3-0.3,0.5s0,0.3,0.2,0.3
		s0.3,0.3,0.8,0.5l1,0.5c1,0.5,1.6,1,2.1,1.5c0.5,0.5,0.5,1.1,0.5,1.8c0,1-0.3,1.6-1,2.3c-0.7,0.7-1.6,1-2.8,1
		c-1.5,0-2.8-0.7-3.6-1.8l1.6-1.8c0.3,0.3,0.7,0.7,1.1,0.8c0.5,0.2,0.8,0.3,1.1,0.3s0.7-0.2,0.8-0.3c0.2-0.2,0.3-0.3,0.3-0.7
		c0-0.3-0.3-0.8-1.1-1.1l-0.8-0.5c-1.6-0.8-2.5-2-2.5-3.3c0-0.8,0.3-1.5,1-2.1c0.7-0.7,1.5-0.8,2.5-0.8c0.7,0,1.3,0.2,2,0.5
		C255.9,529.7,256.1,530.5,256.4,531z"/>
	<path class="st0" d="M271.2,535.6h-8.4c0.2,0.8,0.5,1.3,1,1.8s1.1,0.7,2,0.7c1,0,1.8-0.3,2.5-1l2.1,1c-0.5,0.8-1.1,1.3-2,1.8
		c-0.8,0.5-1.6,0.5-2.8,0.5c-1.6,0-3-0.5-3.9-1.5c-1-1-1.5-2.3-1.5-3.9c0-1.6,0.5-3,1.5-3.9s2.3-1.6,3.9-1.6s3,0.5,3.9,1.6
		c1,1.1,1.5,2.5,1.5,4.1L271.2,535.6z M268.6,533.5c-0.2-0.7-0.5-1-1-1.5s-1.1-0.5-1.8-0.5c-0.7,0-1.3,0.2-2,0.7
		c-0.3,0.3-0.7,0.7-1,1.3H268.6z"/>
	<path class="st0" d="M276.3,525.3c0.5,0,0.8,0.2,1.1,0.5c0.3,0.3,0.5,0.7,0.5,1.1c0,0.5-0.2,0.8-0.5,1.1s-0.7,0.5-1.1,0.5
		s-0.8-0.2-1.1-0.5c-0.3-0.3-0.5-0.7-0.5-1.1c0-0.5,0.2-0.8,0.5-1.1C275.5,525.4,276,525.3,276.3,525.3z M275,529.5h2.6V540H275
		V529.5z"/>
	<path class="st0" d="M282.4,525.8h2.6v3.8h1.5v2.3H285v8.2h-2.6v-8.2h-1.3v-2.3h1.3V525.8z"/>
	<path class="st0" d="M299.3,525.9h4.1V540h-2.6v-11.7h-3L299.3,525.9z"/>
	<path class="st0" d="M317.5,532.3c0.7,0.3,1.1,1,1.5,1.6c0.3,0.7,0.5,1.3,0.5,2.1s-0.2,1.6-0.7,2.3c-0.3,0.7-1,1.1-1.6,1.6
		c-0.7,0.5-1.6,0.5-2.6,0.5c-1.1,0-2-0.2-2.8-0.5s-1.1-0.8-1.6-1.5s-0.7-1.5-0.7-2.3s0.2-1.5,0.5-2c0.3-0.7,0.8-1.1,1.5-1.6
		c-0.5-0.5-0.8-0.8-1-1.3s-0.3-1-0.3-1.5c0-0.7,0.2-1.5,0.5-2s0.8-1.1,1.5-1.5c0.7-0.3,1.3-0.5,2.3-0.5c0.8,0,1.5,0.2,2.1,0.5
		c0.7,0.3,1.1,0.8,1.5,1.5c0.3,0.7,0.5,1.3,0.5,2c0,0.5-0.2,1-0.3,1.5C318,531.8,318,531.8,317.5,532.3z M314.6,533.8
		c-0.7,0-1.1,0.2-1.6,0.7s-0.7,0.8-0.7,1.5c0,0.5,0.2,1,0.7,1.5s1,0.7,1.6,0.7c0.7,0,1.3-0.2,1.6-0.5c0.3-0.3,0.7-0.8,0.7-1.5
		s-0.2-1.1-0.7-1.5S315.2,533.8,314.6,533.8z M314.6,528.1c-0.5,0-0.8,0.2-1.1,0.5c-0.3,0.3-0.5,0.7-0.5,1.1s0.2,0.8,0.5,1.1
		s0.7,0.5,1.1,0.5c0.5,0,0.8-0.2,1.1-0.5c0.3-0.3,0.5-0.7,0.5-1.1c0-0.5-0.2-0.8-0.5-1.1C315.4,528.2,315.1,528.1,314.6,528.1z"/>
	<path class="st0" d="M328.7,525.4h2.6v9h1.3v2.5h-1.3v3h-2.6v-3h-6.2v-2.5L328.7,525.4z M328.7,534.6v-4.8l-3.3,4.8H328.7z"/>
	<path class="st0" d="M340.5,525.4c1,0,2,0.3,2.6,0.8c0.7,0.5,1.3,1.3,1.8,2.3s0.7,2.5,0.7,4.4c0,1.8-0.2,3.3-0.7,4.4
		c-0.5,1.1-1,1.8-1.6,2.3s-1.6,0.7-2.6,0.7s-2-0.3-2.6-0.8c-0.7-0.5-1.3-1.3-1.6-2.3c-0.3-1-0.7-2.5-0.7-4.3c0-2.6,0.3-4.4,1.1-5.6
		C337.7,526.1,339,525.4,340.5,525.4z M340.7,528.1c-0.5,0-0.8,0.2-1.1,0.5c-0.3,0.3-0.7,0.8-0.8,1.5c-0.2,0.7-0.3,1.8-0.3,3.1
		c0,1.8,0.2,3,0.7,3.8c0.5,0.7,1,1,1.6,1c0.7,0,1.1-0.3,1.5-1c0.5-0.8,0.7-2.1,0.7-3.9s-0.2-3.1-0.7-3.8
		C341.8,528.4,341.3,528.1,340.7,528.1z"/>
</g>
<g>
	<path class="st0" d="M188.9,450.2h11v21.4h18.9v-21.4h10.8v56.7h-10.8v-24.8h-18.9v24.8h-11V450.2z"/>
	<path class="st0" d="M261.8,450.2h11l21.8,56.7h-11.2l-4.4-11.7h-23.2l-4.6,11.7H240L261.8,450.2z M267.4,465.3l-7.6,19.4H275
		L267.4,465.3z"/>
	<path class="st0" d="M304.9,450.2h10.8v21.4h18.9v-21.4h10.8v56.7h-10.8v-24.8h-18.9v24.8h-11L304.9,450.2L304.9,450.2z"/>
	<path class="st0" d="M360.6,450.2h10.3l24.3,37.3v-37.3H406v56.7h-10.3l-24.1-37.1v37.1h-10.8v-56.7H360.6z"/>
</g>
<path class="st1" d="M398.7,122.4"/>
<path class="st0" d="M367.4,140.9c0,0-26.6-31.9-54.9-22.2s-48.8,46.6-16.6,95.6c30.6,46.6,52.1,121.9,4.8,216.8
	c0,0,2.1-1.1,5.6-3.3c23.2-13.8,110.9-70,107.1-140.9c-4.3-81.5-73.1-89.4-73.1-123.2C340.5,133.5,367.4,140.9,367.4,140.9z"/>
<path class="st0" d="M346.3,118.1c0,0-24.3-8.5-33.3-20.7c-6.9-9.5-7.4-22.2,0.7-31.5c8-9.4,22.7-8.7,28.4,3.6
	c5.3,11.7-8.2,20.4-8.2,27.9C333.9,110.4,346.3,118.1,346.3,118.1z"/>
<path class="st0" d="M349.1,119.6c0,0-9.5-12.5-9.7-22.7c-0.2-8,6.2-15.3,14.3-15.4c8-0.2,15.3,5.1,12.8,14.1
	c-2.1,8-11.8,7.2-16.1,11.2C344.3,112.2,349.1,119.6,349.1,119.6z"/>
<ellipse class="st2" cx="362.2" cy="116.8" rx="9.2" ry="9"/>
<path class="st0" d="M372.9,186.3c6.2-2,10.3-8.2,9.7-14.9c-1-7.6-7.9-12.8-15.4-11.8c-2.3,0.3-4.3,1.1-6.1,2.5
	c-2,1.1-3.9,2.1-6.6,2.5c-8.5,1.1-9.2-9.2-9.2-9.2s-3.4,16.9,9.7,27.4c5.1,3.9,11.5,5.3,16.9,3.8
	C372.2,186.4,372.4,186.3,372.9,186.3C372.7,186.3,372.9,186.3,372.9,186.3z"/>
<path class="st0" d="M220.8,212.4c19.4-0.2,35.6,15.3,35.6,35.2c0.2,19.9-15.4,36.1-34.7,36.3c-19.4,0.2-35.2-15.8-35.3-35.8
	C186.4,228.3,201.6,212.5,220.8,212.4z"/>
<ellipse transform="matrix(0.9987 -5.088120e-02 5.088120e-02 0.9987 -15.9043 12.8482)" class="st0" cx="244.4" cy="318.8" rx="24.3" ry="25.8"/>
<ellipse transform="matrix(0.9983 -5.828056e-02 5.828056e-02 0.9983 -21.184 16.0461)" class="st0" cx="264.5" cy="371.2" rx="21.2" ry="21.7"/>
<path class="st0" d="M306.8,406.4c4.4-8.9,6.7-53.4-0.3-82.5c-18.1-57.8-50.4-48.9-71.3-42c-38.9,12.8-61.6-56.2-22.2-68.7
	c59.6-18.7,100.7,54.5,105.6,114.3c3.6,44.2-6.2,78.3-6.2,78.3c-1.5,6.6-9.2,22.7-10,23.5C301.3,430.2,303.2,413.4,306.8,406.4z"/>
<path class="st0" d="M304.5,424.8L304.5,424.8c1.8-4.6,3.8-112.5-47.8-83.4c-26.9,15.1-0.3-33.7-25.3-44c4.9-5.1,25.1-10.8,41.6,1.1
	c37,26.9,35.3,68.8,37.8,118.9C311.3,424.9,305.2,428.4,304.5,424.8z"/>
<path class="st0" d="M254.9,352c0,0,8.4-7.2,24,0.2c24.1,11.3,34.3,64.7,22,78.8c0,0,3.8-48.9-29.1-38.9c-18.7,5.6,11.2-24,8.5-26.4
	C267.6,354.3,254.9,352,254.9,352z"/>
<path class="st3" d="M315.7,531"/>
</svg>
