<?xml version="1.0" encoding="utf-8"?>
<!-- Generator: Adobe Illustrator 25.4.0, SVG Export Plug-In . SVG Version: 6.00 Build 0)  -->
<svg version="1.1" id="Ebene_1" xmlns="http://www.w3.org/2000/svg" xmlns:xlink="http://www.w3.org/1999/xlink" x="0px" y="0px"
	 viewBox="0 0 600 600" style="enable-background:new 0 0 600 600;" xml:space="preserve">
<style type="text/css">
	.st0{fill:#FFFFFF;stroke:#FFFFFF;stroke-width:2.0532;stroke-miterlimit:10;}
	.st1{fill:#FFFFFF;}
	.st2{fill:#FFFFFF;stroke:#FFFFFF;stroke-width:0.4897;stroke-miterlimit:10;}
</style>
<path class="st0" d="M419.4,144.5"/>
<path class="st1" d="M379.3,168.3c0,0-34.1-40.9-70.4-28.3s-62.4,59.7-21.4,122.6c39.2,59.7,66.7,156.2,6.2,278c0,0,2.7-1.4,7.2-4.1
	c29.8-17.7,142.1-89.7,137.4-180.7C432.9,251,344.6,241,344.6,197.5C344.8,158.9,379.3,168.3,379.3,168.3z"/>
<path class="st1" d="M352.2,138.9c0,0-31.2-11.1-42.7-26.5c-8.8-12.3-9.4-28.5,0.8-40.4s29.2-11.3,36.3,4.5
	c6.8,15-10.5,26.1-10.5,35.7C336.4,129.1,352.2,138.9,352.2,138.9z"/>
<path class="st1" d="M355.9,140.8c0,0-12.1-16-12.3-29.2c-0.2-10.3,8-19.5,18.3-19.7s19.5,6.6,16.4,18.1
	c-2.7,10.3-15.2,9.2-20.7,14.4C349.8,131.3,355.9,140.8,355.9,140.8z"/>
<ellipse class="st2" cx="372.8" cy="137.3" rx="11.7" ry="11.5"/>
<path class="st1" d="M386.3,226.4c8-2.5,13.3-10.5,12.3-19.1c-1.2-9.6-10.1-16.4-19.7-15.2c-2.9,0.4-5.5,1.4-7.8,3.1
	c-2.5,1.4-5.1,2.7-8.4,3.1c-10.9,1.4-11.7-11.7-11.7-11.7s-4.5,21.8,12.3,35.1c6.6,5.1,14.8,6.8,21.8,4.9c0.4,0,0.6-0.2,1-0.2
	C386.1,226.4,386.3,226.4,386.3,226.4z"/>
<path class="st1" d="M191.5,259.9c24.8-0.2,45.6,19.7,45.8,45.2c0.2,25.5-19.7,46.4-44.6,46.6c-24.8,0.2-45-20.3-45.2-45.8
	C147.3,280.4,166.6,260.1,191.5,259.9z"/>
<ellipse transform="matrix(0.9987 -5.088088e-02 5.088088e-02 0.9987 -19.8718 11.801)" class="st1" cx="221.8" cy="396.2" rx="31.2" ry="33.1"/>
<ellipse transform="matrix(0.9983 -5.827991e-02 5.827991e-02 0.9983 -26.5952 15.201)" class="st1" cx="247.3" cy="463.5" rx="27.3" ry="27.9"/>
<path class="st1" d="M301.9,508.5c5.7-11.3,8.6-68.4-0.4-105.7c-23.4-74.1-64.9-62.6-91.6-54c-50.1,16.4-78.8-72.1-28.3-87.9
	c76.4-24,129.1,70,135.5,146.4c4.7,56.7-8,100.4-8,100.4c-1.8,8.4-11.9,28.9-12.9,30.2C294.5,539.1,297.2,517.5,301.9,508.5z"/>
<path class="st1" d="M298.6,531.9L298.6,531.9c2.5-6,4.7-144.1-61.2-107c-34.5,19.5-0.4-43.1-32.4-56.5c6.4-6.4,32-13.8,53.2,1.4
	c47.6,34.5,45.4,88.3,48.7,152.5C307.3,532.3,299.7,536.8,298.6,531.9z"/>
<path class="st1" d="M235,438.9c0,0,10.7-9.2,30.8,0.2c31,14.6,43.9,82.9,28.3,101c0,0,4.9-62.6-37.4-49.9
	c-24,7.2,14.2-30.8,10.9-33.9C251.4,441.8,235,438.9,235,438.9z"/>
<path class="st0" d="M310.5,659.2"/>
<path class="st0" d="M68.7,149.8"/>
</svg>
