<?xml version="1.0" encoding="utf-8"?>
<!-- Generator: Adobe Illustrator 25.4.0, SVG Export Plug-In . SVG Version: 6.00 Build 0)  -->
<svg version="1.1" id="Ebene_1" xmlns="http://www.w3.org/2000/svg" xmlns:xlink="http://www.w3.org/1999/xlink" x="0px" y="0px"
	 viewBox="0 0 600 600" style="enable-background:new 0 0 600 600;" xml:space="preserve">
<style type="text/css">
	.st0{fill:#FFFFFF;}
	.st1{fill:#C80023;}
</style>
<g>
	<g>
		<g>
			<path class="st0" d="M414.6,221.5c-3.6-27.9-18.3-53.6-41.5-72.3c-0.9-0.7-2.2-0.8-3.2-0.2s-1.5,1.8-1.2,2.9
				c1.5,6.3,2,12.8,1.3,19.3c-1.2,12-6,27.3-13.9,36.7c-0.6,0.8-0.8,1.8-0.5,2.7c0.4,0.9,1.2,1.7,2.2,1.7
				c22.7,1.5,42.3,6.6,52.9,11.8c0.3,0.1,0.6,0.2,0.9,0.3c0.7,0.1,1.3-0.1,1.9-0.5C414.3,223.4,414.7,222.5,414.6,221.5z"/>
		</g>
		<path class="st0" d="M189.5,221.5c3.6-27.9,18.3-53.6,41.5-72.3c0.9-0.7,2.2-0.8,3.2-0.2s1.5,1.8,1.2,2.9
			c-1.5,6.3-2,12.8-1.3,19.3c1.2,12,6,27.3,13.9,36.7c0.6,0.8,0.8,1.8,0.5,2.7c-0.4,0.9-1.2,1.7-2.2,1.7
			c-22.7,1.5-42.3,6.6-52.9,11.8c-0.3,0.1-0.6,0.2-0.9,0.3c-0.7,0.1-1.3-0.1-1.9-0.5C189.8,223.4,189.4,222.5,189.5,221.5z"/>
		<path class="st1" d="M414,243.3c0-0.1,0.1-0.2,0.1-0.3c0-9.9-50.4-17.9-112.5-17.9c-62.2,0-112.5,8-112.5,17.9
			c0,0.1,0,0.2,0.1,0.4c0,0,0,0,0,0.1v1.3c0.7,29.5,12.7,57.1,33.8,77.8c21.2,20.7,49.1,32.1,78.7,32.1s57.6-11.4,78.7-32.1
			s33.1-48.3,33.8-77.8L414,243.3L414,243.3z M301.5,252.7c-53.8,0-97.5-6.5-97.5-10.5s43.7-8.9,97.5-8.9s97.5,4.9,97.5,8.9
			S355.4,252.7,301.5,252.7z"/>
	</g>
	<g>
		<g>
			<path class="st0" d="M50,436.2v-42.7h-3.6c-1.3,0-2.6-1.4-2.6-3.2v-3.2c0-1.7,1.4-2.6,2.6-2.6h24.9c9.8,0,17.8,7.6,17.8,17.4
				v24.5c0,10.7-8.9,19.1-19.1,19.1H46.4c-1.3,0-2.6-1.4-2.6-2.6V439c0-1.4,1.4-2.7,2.6-2.7C47.8,436.2,49.1,436.2,50,436.2z
				 M66.4,436.2c8.5,0,11.7-2.6,12.1-12v-20c0-8.9-4.9-10.7-11.2-10.7h-6.6v42.7C62.4,436.2,64.7,436.2,66.4,436.2z"/>
			<path class="st0" d="M126.5,409.3c1.8,0,2.6,1.5,2.6,2.7v4c0,1.4-0.8,2.7-2.6,2.7h-14.8v17.4H127v-8.6c0-1.7,1.3-2.5,2.5-2.5h4
				c1.4,0,2.7,0.8,2.7,2.5c0,5,0,9.8,0,15.1c0,1.5-1.4,2.7-2.7,2.7h-35c-1.3,0-2.6-1.3-2.6-2.7v-4c0-1.3,1.4-2.5,2.6-2.5h2.7v-42.7
				h-3.6c-1.5,0-2.7-1.3-2.7-3.1v-3.2c0-1.8,1.3-2.7,2.7-2.7h35.1c1.8,0,3.1,0.9,3.1,2.7c0,4,0,8,0,12c0,1.3-1.3,2.5-3.1,2.5h-3.6
				c-1.7,0-2.6-1.3-2.6-2.5v-5.7h-14.8v15.8h14.8V409.3z"/>
			<path class="st0" d="M167.6,433.9c0,1.4,1.7,1.4,2.2,0l8.2-40.4h-4.2c-1.4,0-2.6-1.4-2.6-3.1v-3.2c0-1.8,1.3-2.7,2.6-2.7h17.8
				c1.7,0,2.6,0.9,2.6,2.7v3.2c0,1.7-0.9,3.1-2.6,3.1h-2.5l-11.7,49.8c0,1.3-1.4,2.2-2.6,2.2h-12.5c-1.4,0-2.6-0.9-2.6-2.2
				L148,393.5h-3.1c-1.3,0-2.6-1.4-2.6-3.1v-3.2c0-1.8,1.4-2.7,2.6-2.7h17.8c1.4,0,2.6,0.9,2.6,2.7v3.2c0,1.7-1.3,3.1-2.6,3.1H159
				L167.6,433.9z"/>
			<path class="st0" d="M223.3,387.3v3.1c0,1.7-1.4,3.1-2.7,3.1h-4v42.7h4c1.4,0,2.7,1.3,2.7,2.6v3.9c0,1.5-1.4,2.7-2.7,2.7h-17.7
				c-1.5,0-2.7-1.3-2.7-2.7v-3.9c0-1.4,1.3-2.6,2.7-2.6h3.6v-42.7h-3.6c-1.5,0-2.7-1.4-2.7-3.1v-3.1c0-1.8,1.3-2.7,2.7-2.7h17.7
				C222,384.5,223.3,385.4,223.3,387.3z"/>
			<path class="st0" d="M253.7,387.1v3.3c0,1.7-1.3,3.1-2.6,3.1h-4v42.7h15.2v-8.6c0-1.3,0.9-2.6,2.6-2.6h3.6c1.8,0,3.1,1.4,3.1,2.6
				v15.2c0,1.3-1.3,2.6-3.1,2.6h-35.2c-1.3,0-2.6-1.4-2.6-2.6v-4c0-1.4,1.4-2.6,2.6-2.6h3.6v-42.7h-3.6c-1.3,0-2.6-1.4-2.6-3.1v-3.3
				c0-1.8,1.4-2.6,2.6-2.6h17.8C252.5,384.4,253.7,385.3,253.7,387.1z"/>
			<path class="st0" d="M298.2,427.6c0-1.4,1.4-2.6,2.6-2.6h5.4c1.4,0,2.7,0.9,2.7,2.6c0,4.9,1.7,9.8,8.9,9.4
				c5.3-0.5,7.1-2.6,7.1-7.6c0.9-10.7-19.7-9.8-24.5-22.3c-1.8-3.2-1.8-10.3,0.4-14.8c1.8-4.9,7.2-8.9,17-8.9
				c11.1,0,17.4,6.7,16.9,17.8c0,1.8-0.9,3.1-2.7,3.1h-5.3c-1.4,0-2.7-1.3-2.3-2.6c0-5.4-2.2-8.9-6.6-9.4c-6.3,0-7.6,3.1-8.1,7.1
				c-0.8,8.6,10.7,10.7,16.6,13.8c5.7,2.7,9.4,8.1,9.4,15.2c0,12-8.9,17.8-17.8,17.8C303.5,446.4,298.6,438.8,298.2,427.6z"/>
			<path class="st0" d="M359.6,445.4c-9.6,0-17.3-7.7-17.3-17.3v-26.4c0-9.5,7.7-17.3,17.3-17.3h3.5c9.6,0,17.3,7.8,17.3,17.3v26.4
				c0,9.6-7.7,17.3-17.3,17.3H359.6z M362.3,436.3c4.7,0,8.2-3.8,8.2-8.2v-26.4c0-4.7-3.9-8.6-8.2-8.6h-1.8c-4.7,0-8.2,3.8-8.2,8.6
				v26.4c0,4.4,3.5,8.2,8.2,8.2H362.3z"/>
			<path class="st0" d="M408.8,387.1v3.7c0,1.7-1.2,2.6-2.5,2.6h-3.6v32.9c0,5.8,2.2,11.1,9.8,10.7c4.9-0.4,7.9-3.1,7.9-10.7v-32.9
				h-3.6c-1.7,0-2.5-1.3-2.5-3V387c0-1.7,0.8-2.6,2.5-2.6h17.9c1.3,0,2.6,0.9,2.6,2.6v3.4c0,1.7-1.4,3-2.6,3h-4V425
				c0,3.6-0.5,8.6-1.7,11.7c-2.7,5.3-7.7,9.7-16.1,9.7c-16,0.4-20.5-9.4-20.5-21.4v-31.5h-4c-1.3,0-2.6-0.9-2.6-2.6v-3.7
				c0-1.7,1.4-2.6,2.6-2.6h17.8C407.6,384.4,408.8,385.3,408.8,387.1z"/>
			<path class="st0" d="M484.7,400.6v11.1c0,8.4-7.1,16.9-16.8,16.9h-9.5v7.6h5.5c1.7,0,2.6,1.3,2.6,2.6v4c0,1.3-0.9,2.6-2.6,2.6
				h-19.2c-1.3,0-2.6-1.4-2.6-2.6v-4c0-1.4,0.9-2.6,2.6-2.6h3.6v-42.7h-3.6c-1.3,0-2.6-0.9-2.6-2.6v-3.6c0-1.8,0.9-2.7,2.6-2.7h24.5
				C478,384.5,484.2,392.1,484.7,400.6z M458.3,419.1h8.6c4,0,6.6-3.1,6.6-6.6l0.5-11.9c0-4-3.6-7.1-7.6-7.1h-8.1V419.1z"/>
			<path class="st0" d="M490.2,427.6c0-1.4,1.4-2.6,2.6-2.6h5.4c1.4,0,2.7,0.9,2.7,2.6c0,4.9,1.7,9.8,8.9,9.4
				c5.3-0.5,7.1-2.6,7.1-7.6c0.9-10.7-19.7-9.8-24.5-22.3c-1.8-3.2-1.8-10.3,0.4-14.8c1.8-4.9,7.2-8.9,17-8.9
				c11.1,0,17.4,6.7,16.9,17.8c0,1.8-0.9,3.1-2.7,3.1h-5.3c-1.4,0-2.7-1.3-2.3-2.6c0-5.4-2.2-8.9-6.6-9.4c-6.3,0-7.6,3.1-8.1,7.1
				c-0.8,8.6,10.7,10.7,16.6,13.8c5.7,2.7,9.4,8.1,9.4,15.2c0,12-8.9,17.8-17.8,17.8C495.6,446.4,490.7,438.8,490.2,427.6z"/>
		</g>
		<path class="st0" d="M551.8,397.8H551l-1.5-2.7c0.9-0.4,1.6-1.5,1.6-2.6v-1.6c0-1.4-1.1-2.6-2.6-2.6h-4.3c-0.3,0-0.5,0.2-0.5,0.4
			v0.7c0,0.4,0.4,0.4,0.5,0.4h0.6v8h-0.6c-0.3,0-0.4,0.2-0.4,0.2l-0.1,0.1v0.8c0,0.2,0.2,0.4,0.5,0.4h3.2c0.2,0,0.4-0.2,0.4-0.4
			v-0.8V398c0,0-0.2-0.2-0.4-0.2h-1v-2.5h1.4c0.8,1.2,1.4,2.5,2,3.6v0.1c0.1,0.1,0.3,0.3,0.5,0.3h1.5c0.3,0,0.3-0.3,0.3-0.4v-0.7
			C552.2,398,552.1,397.8,551.8,397.8z M549.5,390.9v1.9c-0.2,0.6-0.6,1-1,1h-2.1V390h2C548.9,390,549.5,390.3,549.5,390.9z"/>
		<path class="st0" d="M547.7,383.4c-5.8,0-10.5,4.7-10.5,10.5s4.7,10.5,10.5,10.5s10.5-4.7,10.5-10.5S553.5,383.4,547.7,383.4z
			 M556.1,393.9c0,4.6-3.7,8.3-8.3,8.3s-8.3-3.7-8.3-8.3s3.7-8.3,8.3-8.3S556.1,389.3,556.1,393.9z"/>
	</g>
</g>
</svg>
