<?xml version="1.0" encoding="utf-8"?>
<!-- Generator: Adobe Illustrator 25.4.0, SVG Export Plug-In . SVG Version: 6.00 Build 0)  -->
<svg version="1.1" id="Ebene_1" xmlns="http://www.w3.org/2000/svg" xmlns:xlink="http://www.w3.org/1999/xlink" x="0px" y="0px"
	 viewBox="0 0 600 600" style="enable-background:new 0 0 600 600;" xml:space="preserve">
<style type="text/css">
	.st0{fill:#181716;}
	.st1{fill:#C80023;}
</style>
<g>
	<g>
		<g>
			<path class="st0" d="M490.7,249c-6.1-47.2-31-90.7-70.2-122.3c-1.5-1.2-3.7-1.4-5.4-0.3c-1.7,1-2.5,3-2,4.9
				c2.5,10.7,3.4,21.7,2.2,32.7c-2,20.3-10.2,46.2-23.5,62.1c-1,1.4-1.4,3-0.8,4.6c0.7,1.5,2,2.9,3.7,2.9
				c38.4,2.5,71.6,11.2,89.5,20c0.5,0.2,1,0.3,1.5,0.5c1.2,0.2,2.2-0.2,3.2-0.8C490.2,252.3,490.9,250.7,490.7,249z"/>
		</g>
		<path class="st0" d="M109.9,249c6.1-47.2,31-90.7,70.2-122.3c1.5-1.2,3.7-1.4,5.4-0.3c1.7,1,2.5,3,2,4.9
			c-2.5,10.7-3.4,21.7-2.2,32.7c2,20.3,10.2,46.2,23.5,62.1c1,1.4,1.4,3,0.8,4.6c-0.7,1.5-2,2.9-3.7,2.9
			c-38.4,2.5-71.6,11.2-89.5,20c-0.5,0.2-1,0.3-1.5,0.5c-1.2,0.2-2.2-0.2-3.2-0.8C110.4,252.3,109.7,250.7,109.9,249z"/>
		<path class="st1" d="M489.7,285.9c0-0.2,0.2-0.3,0.2-0.5c0-16.7-85.3-30.3-190.3-30.3c-105.2,0-190.3,13.5-190.3,30.3
			c0,0.2,0,0.3,0.2,0.7c0,0,0,0,0,0.2v2.2c1.2,49.9,21.5,96.6,57.2,131.6c35.9,35,83.1,54.3,133.2,54.3s97.5-19.3,133.2-54.3
			s56-81.7,57.2-131.6L489.7,285.9L489.7,285.9z M299.4,301.8c-91,0-165-11-165-17.8s73.9-15.1,165-15.1s165,8.3,165,15.1
			S390.5,301.8,299.4,301.8z"/>
	</g>
</g>
</svg>
