<?xml version="1.0" encoding="utf-8"?>
<!-- Generator: Adobe Illustrator 25.4.0, SVG Export Plug-In . SVG Version: 6.00 Build 0)  -->
<svg version="1.1" id="Ebene_1" xmlns="http://www.w3.org/2000/svg" xmlns:xlink="http://www.w3.org/1999/xlink" x="0px" y="0px"
	 viewBox="0 0 299.7 76.9" style="enable-background:new 0 0 299.7 76.9;" xml:space="preserve">
<style type="text/css">
	.st0{fill:#2E2113;}
</style>
<g>
	<path class="st0" d="M23.3,12.4c0-1.1-0.3-2.5-0.3-4c0-1.1,0.3-3.6,0.3-5.7c0-0.7-0.5-1.1-1.5-1.1C18.6,1.6,14.6,2,11.5,2
		s-7-0.4-10.3-0.4c-1,0-1.5,0.4-1.5,1.1C-0.3,4.8,0,7.2,0,8.4c0,1.4-0.3,2.9-0.3,4c0,0.6,0.4,1,0.6,1s0.6-0.4,0.6-1.1
		c0-1-0.2-2.5-0.2-3.8c0-5.2,0-5.5,3.1-5.5h5.1c1.6,0,1.8,0,1.8,1.8v17.8c0,6.7,0,7.7-2.3,7.7c-0.9,0-1.5-0.2-2.4-0.2
		c-0.4,0-0.9,0.2-0.9,0.6s0.5,0.5,0.9,0.5c1.3,0,3.1-0.3,5.2-0.3s3.9,0.3,5.2,0.3c0.4,0,0.9-0.2,0.9-0.5c0-0.4-0.5-0.5-0.9-0.5
		c-0.8,0-1.4,0.2-2.4,0.2c-2.3,0-2.3-1-2.3-7.7V4.9C12.1,3,12.1,3,14,3h5.1c3.1,0,3.1,0.3,3.1,5.5c0,1.3-0.2,2.9-0.2,3.8
		c0,0.7,0.4,1.1,0.6,1.1S23.3,13,23.3,12.4"/>
	<path class="st0" d="M48.6,25.4c0-0.9-0.1-1.3-0.5-1.3s-0.7,0.3-0.5,3.3c0.2,2.4-1.3,3.4-2.3,3.4c-2.4,0-2.4-2.1-2.4-6v-8.5
		c0-4.1-1.7-7.4-7.6-7.4c-4.9,0-7.7,2.8-7.7,5.7c0,1.3,1.1,2.5,2.4,2.6c1,0,2-0.7,2-1.8l0,0c0.1-0.7-0.4-1.3-1.2-1.3h-0.1
		c-1,0-1.3,1.2-1.5,1.2s-0.4-0.4-0.4-0.7c0-2.3,2.4-4.5,6.7-4.5c4.8,0,6.2,3,6.2,4.9c0,4.1-4.3,4.4-6.7,4.5
		c-5.2,0.2-8.7,1.7-8.7,6.7c0,3.2,2.9,5.9,6.9,5.9c5.3,0,7.3-3,8.5-4.9h0.1c0.2,2.6,0.4,4.9,3.4,4.9C48,31.7,48.6,29.3,48.6,25.4"/>
	<path class="st0" d="M77,30.8c0-0.4-0.4-0.5-0.9-0.5s-1.4,0.2-2.1,0.2c-2.4,0-2.4-0.8-2.4-7.3v-4.5c0-5.5-1.3-9.6-8-9.6
		c-5.4,0-7.2,3.2-7.9,4.7h-0.1v-3.6c0-0.5,0-0.9-0.7-0.9s-1,0.2-2.3,0.2c-1.6,0-2.3-0.2-2.7-0.2c-0.5,0-0.7,0.3-0.7,0.5
		s0.3,0.5,0.8,0.5s2-0.2,2.8-0.2c1.6,0,1.7,0.3,1.7,5.7v7c0,6.5,0,7.3-2.4,7.3c-0.6,0-1.5-0.2-2.1-0.2s-0.9,0.2-0.9,0.5
		s0.4,0.5,0.8,0.5c1.3,0,3.4-0.3,5-0.3s3.9,0.3,5.1,0.3c0.4,0,0.8-0.2,0.8-0.5s-0.4-0.5-0.9-0.5s-1.3,0.2-2.1,0.2
		c-2.3,0-2.3-0.8-2.3-7.3v-4.3c0-5.4,2.7-8.7,7.8-8.7c6,0,7,3.8,7,8.8V23c0,6.5,0,7.3-2.4,7.3c-0.6,0-1.5-0.2-2.1-0.2
		s-0.9,0.2-0.9,0.5c0,0.4,0.4,0.5,0.8,0.5c1.3,0,3.4-0.3,5-0.3s3.9,0.3,5.1,0.3C76.5,31.3,77,31.1,77,30.8"/>
	<path class="st0" d="M85.1,4.5c0-0.8-0.7-1.5-1.5-1.5S82,3.7,82,4.5l0,0C82,5.3,82.7,6,83.5,6S85.1,5.3,85.1,4.5L85.1,4.5"/>
	<path class="st0" d="M89.8,30.8c0-0.4-0.4-0.5-0.9-0.5s-1.4,0.2-2.1,0.2c-2.4,0-2.4-0.8-2.4-7.3v-13c0-0.5,0-0.9-0.7-0.9
		s-1,0.2-2.4,0.2c-1.6,0-2.3-0.2-2.7-0.2c-0.5,0-0.7,0.3-0.7,0.5s0.3,0.5,0.8,0.5s2-0.2,2.8-0.2c1.6,0,1.7,0.3,1.7,5.7v7
		c0,6.5,0,7.3-2.4,7.3c-0.6,0-1.5-0.2-2.1-0.2c-0.5,0-0.9,0.2-0.9,0.5s0.4,0.5,0.8,0.5c1.3,0,3.4-0.3,5-0.3s3.9,0.3,5.1,0.3
		C89.4,31.3,89.8,31.1,89.8,30.8"/>
	<path class="st0" d="M113.8,25.4c0-0.9-0.1-1.3-0.5-1.3s-0.7,0.3-0.5,3.3c0.2,2.4-1.3,3.4-2.3,3.4c-2.4,0-2.4-2.1-2.4-6v-8.5
		c0-4.1-1.7-7.4-7.6-7.4c-4.9,0-7.7,2.8-7.7,5.7c0,1.3,1.1,2.5,2.5,2.6c1,0,2-0.7,2-1.8l0,0c0.1-0.7-0.4-1.3-1.2-1.3H96
		c-1,0-1.3,1.2-1.5,1.2s-0.4-0.4-0.4-0.7c0-2.3,2.4-4.5,6.7-4.5c4.9,0,6.2,3,6.2,4.9c0,4.1-4.3,4.4-6.7,4.5
		c-5.2,0.2-8.7,1.7-8.7,6.7c0,3.2,3,5.9,6.9,5.9c5.3,0,7.3-3,8.5-4.9h0.1c0.2,2.6,0.4,4.9,3.4,4.9C113.3,31.7,113.8,29.1,113.8,25.4
		"/>
	<path class="st0" d="M153.6,29.9c0-1.3-0.3-2.6-0.3-4.2c0-1.3,0.3-2.8,0.3-4.1c0-0.7-0.4-1.1-0.6-1.1s-0.6,0.5-0.6,1.3
		c0,1.3,0.2,3,0.2,4.7c0,3.9-0.6,3.9-5.5,3.9h-8.5c-2.5,0-2.9,0-2.9-2.8v-9.2c0-1.4,0-1.8,1.5-1.8h4.8c2.6,0,3.4,0.6,3.4,3
		c0,1.2-0.2,2.4-0.2,3.5s0.3,1.4,0.6,1.4s0.5-0.4,0.5-1.3c0-1.4-0.3-5.1-0.3-7.1c0-1.3,0.3-4.4,0.3-5.7c0-0.7-0.2-1.3-0.5-1.3
		s-0.6,0.3-0.6,1.2s0.2,2.1,0.2,3.1c0,2.1-1.4,2.4-3.4,2.4h-4.5c-1.8,0-1.8-0.2-1.8-1.8V7.4c0-4.1,0.4-4.1,2.6-4.1h9.4
		c3.8,0,4.4,0,4.4,3.5c0,1-0.2,4.6-0.2,5.7c0,0.8,0,1.5,0.6,1.5s0.7-0.9,0.7-1.5c0-1.1-0.3-2.6-0.3-4.3c0-1.4,0.3-2.9,0.3-4.6
		c0-1.2-0.6-1.3-1.6-1.3c-1.7,0-4.6,0.1-7.6,0.1c-3.1,0-6.4,0.2-8.9,0.2c-0.9,0-1.8-0.1-2.8-0.2c-0.9-0.1-1.7-0.2-2.6-0.2
		s-1,0.4-1,0.6c0,0.2,0.4,0.6,1,0.6c0.8,0,1.8-0.2,2.9-0.2c1.6,0,1.8,0.6,1.8,3.7V26c0,3.6,0,4.4-1.8,4.4c-1.1,0-2-0.2-2.9-0.2
		c-0.6,0-1,0.3-1,0.7s0.6,0.6,1.2,0.6c0.6,0,1-0.1,1.5-0.2c0.6,0,1.4-0.1,2.6-0.1c3.2,0,6.7,0.1,9.8,0.1s5.9,0.2,7.7,0.2
		C152.6,31.3,153.6,31.2,153.6,29.9"/>
	<path class="st0" d="M168.7,30.8c0-0.4-0.4-0.5-0.9-0.5s-1.4,0.2-2.1,0.2c-2.4,0-2.4-0.8-2.4-7.3V2.1c0-0.5,0-0.9-0.7-0.9
		s-1,0.2-2.4,0.2c-1.6,0-2.3-0.2-2.7-0.2s-0.7,0.3-0.7,0.5s0.3,0.5,0.8,0.5s2-0.2,2.8-0.2c1.6,0,1.7,0.3,1.7,5.8v15.3
		c0,6.5,0,7.3-2.4,7.3c-0.6,0-1.5-0.2-2.1-0.2c-0.5,0-0.9,0.2-0.9,0.5c0,0.4,0.4,0.5,0.8,0.5c1.3,0,3.3-0.3,5-0.3s3.8,0.3,5.1,0.3
		C168.2,31.3,168.7,31.1,168.7,30.8"/>
	<path class="st0" d="M189.1,24.4c0-0.5-0.2-0.8-0.6-0.8s-0.4,0.4-0.5,1.1c0,0.5-0.8,6.1-7.4,6.1c-5.8,0-8.9-4.2-8.9-10.3
		c0-6.8,3.8-10.7,9.2-10.7c4.9,0,6.8,3.3,6.8,5.3c0,0.6-0.3,1.3-0.6,1.3s-0.5-0.7-1.3-0.7c-0.7,0-1.3,0.5-1.3,1.3l0,0
		c0,0.9,0.7,1.5,1.5,1.6c0,0,0,0,0.1,0c1.3,0,2.7-1.1,2.7-3.2c0-3.5-3.2-6.5-7.9-6.5c-6.6,0-10.3,5-10.3,11.6
		c0,5.3,3,11.2,10.3,11.2C187.5,31.7,188.9,26.3,189.1,24.4"/>
	<path class="st0" d="M212.4,20.2c0-6.1-3.9-11.3-10.2-11.3s-10.3,5.2-10.3,11.3s3.9,11.4,10.3,11.4
		C208.6,31.7,212.4,26.4,212.4,20.2"/>
	<path class="st0" d="M255.3,30.8c0-0.4-0.4-0.5-0.9-0.5s-1.3,0.2-2.1,0.2c-2.4,0-2.4-0.8-2.4-7.3v-7.3c0-3.3-1.6-6.8-7.2-6.8
		c-3.2-0.2-6.3,1.8-7.4,4.9c-0.7-2.1-1.8-4.9-7-4.9c-4.9,0-6.5,3.1-6.9,4.2h-0.1v-3.1c0-0.5,0-0.9-0.7-0.9s-1,0.2-2.4,0.2
		c-1.6,0-2.3-0.2-2.7-0.2c-0.5,0-0.7,0.3-0.7,0.5s0.3,0.5,0.8,0.5s2-0.2,2.8-0.2c1.6,0,1.7,0.3,1.7,5.7v7c0,6.5,0,7.3-2.4,7.3
		c-0.6,0-1.5-0.2-2.1-0.2c-0.5,0-0.9,0.2-0.9,0.5s0.4,0.5,0.8,0.5c1.3,0,3.3-0.3,5-0.3s3.8,0.3,5.1,0.3c0.4,0,0.8-0.2,0.8-0.5
		s-0.4-0.5-0.9-0.5s-1.4,0.2-2.1,0.2c-2.4,0-2.4-0.8-2.4-7.3v-5.1c0-5.2,2.7-7.9,7-7.9c5.8,0,6.2,4.3,6.2,7.5V23
		c0,6.5,0,7.3-2.4,7.3c-0.6,0-1.5-0.2-2.1-0.2c-0.5,0-0.9,0.2-0.9,0.6s0.4,0.5,0.8,0.5c1.3,0,3.3-0.3,5-0.3s3.8,0.3,5.1,0.3
		c0.4,0,0.8-0.2,0.8-0.5c0-0.4-0.4-0.5-0.9-0.5s-1.3,0.2-2.1,0.2c-2.3,0-2.3-0.8-2.3-7.3v-4.4c0-6.2,2.7-8.8,7-8.8
		c5.4,0,6.2,3.5,6.2,7.1v6.2c0,6.5,0,7.3-2.3,7.3c-0.6,0-1.5-0.2-2.1-0.2c-0.5,0-0.9,0.2-0.9,0.5c0,0.4,0.4,0.5,0.8,0.5
		c1.3,0,3.4-0.3,5-0.3s3.8,0.3,5.1,0.3C254.9,31.3,255.4,31.1,255.3,30.8"/>
	<path class="st0" d="M275.7,19.6c0.3-0.3,0.4-0.6,0.3-0.9c0-3.6-2.5-9.7-9.2-9.7c-6,0-10.1,4.9-10.1,11.6c0,4.9,2.5,11.1,9.8,11.1
		c4.5,0.2,8.5-3.1,9.1-7.6c0-0.3-0.1-0.6-0.5-0.6s-0.5,0.6-0.9,1.8c-0.5,2.5-3.1,5.4-7.8,5.4c-6.1,0-8.5-5.2-8.5-9.9
		c0-0.9,0.1-1.1,0.9-1.1H274C274.6,20,275.3,19.9,275.7,19.6L275.7,19.6"/>
</g>
<g>
	<path d="M10.9,54.7c0,1.6-0.4,2.8-1.3,3.6s-2.1,1.3-3.7,1.3s-2.8-0.4-3.7-1.3c-0.8-0.8-1.2-2-1.2-3.6v-8.2h1v8c0,1.4,0.3,2.4,1,3.1
		c0.7,0.7,1.7,1.1,3,1.1s2.3-0.4,3-1.1c0.7-0.7,1-1.8,1-3.1v-8h1v8.2H10.9z"/>
	<path d="M22,59.4l-3.9-5.8l-4,5.8H13l4.6-6.6l-4.2-6.3h1.2l3.7,5.5l3.7-5.5h1l-4.3,6.2l4.4,6.6L22,59.4L22,59.4z"/>
	<path d="M40,48.2c1.1,1.1,1.7,2.7,1.7,4.7c0,2.1-0.6,3.7-1.7,4.9c-1.1,1.1-2.7,1.7-4.8,1.7h-4.1V46.6h4.1
		C37.3,46.6,38.9,47.1,40,48.2z M39.3,57.1c0.9-1,1.4-2.4,1.4-4.2c0-1.7-0.5-3.1-1.4-4s-2.2-1.4-4-1.4h-3.2v11.1h3.2
		C37.1,58.5,38.4,58.1,39.3,57.1z"/>
	<path d="M52.6,55h-7.8c0.1,1.2,0.4,2.1,1.1,2.8s1.5,1,2.6,1c0.8,0,1.4-0.2,2-0.5s1-0.8,1.2-1.3l0.8,0.4c-0.4,0.7-0.9,1.3-1.6,1.6
		c-0.7,0.4-1.5,0.6-2.4,0.6c-1.4,0-2.6-0.4-3.4-1.3c-0.8-0.9-1.2-2.1-1.2-3.7c0-1.6,0.4-2.8,1.2-3.7s1.9-1.3,3.3-1.3
		c1.3,0,2.4,0.4,3.1,1.3c0.8,0.9,1.1,2.1,1.1,3.5C52.6,54.5,52.6,54.8,52.6,55z M45.8,51.3c-0.6,0.7-1,1.6-1,2.8h6.9
		c-0.1-1.2-0.4-2.1-1-2.8s-1.4-1-2.4-1S46.5,50.7,45.8,51.3z"/>
	<path d="M55.8,59c-0.7-0.4-1.2-1-1.5-1.7l0.8-0.5c0.2,0.7,0.6,1.1,1.2,1.5c0.6,0.3,1.3,0.5,2.2,0.5s1.6-0.2,2.1-0.5
		s0.8-0.8,0.8-1.3s-0.2-0.9-0.6-1.2c-0.4-0.3-1.2-0.5-2.3-0.7c-1.4-0.2-2.3-0.6-2.9-1c-0.6-0.4-0.8-1-0.8-1.8c0-0.5,0.2-1,0.5-1.4
		s0.8-0.8,1.3-1c0.6-0.2,1.2-0.4,2-0.4c1,0,1.9,0.2,2.5,0.6s1,1,1.3,1.8l-0.8,0.5c-0.4-1.3-1.3-2-2.9-2c-0.5,0-1,0.1-1.4,0.3
		s-0.8,0.4-1,0.7s-0.4,0.6-0.4,0.9c0,0.5,0.2,1,0.7,1.3c0.4,0.3,1.2,0.5,2.3,0.7c1.3,0.2,2.3,0.5,2.8,1c0.5,0.4,0.8,1,0.8,1.8
		s-0.4,1.5-1.1,2c-0.7,0.5-1.7,0.8-2.9,0.8C57.4,59.6,56.5,59.4,55.8,59z"/>
	<path d="M64.7,47.6c-0.1-0.1-0.2-0.3-0.2-0.6c0-0.2,0.1-0.4,0.2-0.6c0.1-0.1,0.3-0.2,0.6-0.2c0.2,0,0.4,0.1,0.6,0.2
		c0.1,0.1,0.2,0.3,0.2,0.6c0,0.2-0.1,0.4-0.2,0.6c-0.2,0.1-0.3,0.2-0.6,0.2C65.1,47.8,64.9,47.7,64.7,47.6z M65.8,59.4h-1v-9.8h1
		V59.4z"/>
	<path d="M76.4,59c0.6,0.4,0.8,0.9,0.8,1.6c0,0.6-0.2,1.1-0.6,1.6c-0.4,0.4-0.9,0.8-1.6,1s-1.5,0.4-2.4,0.4c-1.5,0-2.6-0.2-3.4-0.7
		S68,61.8,68,61c0-0.5,0.2-0.9,0.5-1.3c0.3-0.4,0.7-0.6,1.3-0.8c-0.4-0.2-0.7-0.4-0.9-0.7c-0.2-0.3-0.3-0.6-0.3-1
		c0-0.5,0.2-0.9,0.5-1.2s0.7-0.6,1.2-0.7c-0.5-0.3-0.9-0.6-1.2-1.1c-0.3-0.5-0.4-1-0.4-1.6c0-1,0.4-1.7,1.1-2.3s1.7-0.9,2.9-0.9
		c0.8,0,1.6,0.2,2.2,0.4c0.1-0.6,0.3-1.1,0.8-1.5c0.4-0.4,1-0.6,1.7-0.6l0.2,0.9c-0.6,0-1.1,0.1-1.4,0.4c-0.4,0.3-0.6,0.7-0.6,1.2
		c0.7,0.6,1.1,1.4,1.1,2.3c0,1-0.4,1.7-1.1,2.3s-1.7,0.9-2.9,0.9c-0.4,0-0.8,0-1.3-0.1c-0.5,0.1-1,0.2-1.3,0.5s-0.5,0.6-0.5,0.9
		c0,0.4,0.2,0.7,0.5,1c0.4,0.2,0.9,0.4,1.6,0.4h2.5C75.1,58.4,75.9,58.6,76.4,59z M75.4,62.2c0.7-0.4,1-0.9,1-1.5
		c0-0.5-0.2-0.8-0.6-1.1s-1-0.4-1.8-0.4h-2.5c-0.7,0-1.3,0.1-1.8,0.4C69.2,60,69,60.4,69,60.9c0,0.6,0.3,1.1,1,1.4s1.6,0.5,2.8,0.5
		C73.8,62.8,74.7,62.6,75.4,62.2z M70.4,54.4c0.5,0.4,1.3,0.6,2.2,0.6c0.9,0,1.6-0.2,2.2-0.6c0.5-0.4,0.8-1,0.8-1.7
		s-0.3-1.3-0.8-1.7s-1.3-0.6-2.2-0.6c-0.9,0-1.6,0.2-2.2,0.6c-0.5,0.4-0.8,1-0.8,1.7S69.8,54,70.4,54.4z"/>
	<path d="M86.3,50.4c0.7,0.6,1,1.5,1,2.7v6.3h-1v-6c0-1-0.3-1.8-0.8-2.3s-1.2-0.8-2.1-0.8c-0.6,0-1.2,0.1-1.7,0.4
		c-0.5,0.3-1,0.7-1.3,1.2s-0.5,1.2-0.5,1.9v5.5h-1v-9.8h0.9v2c0.3-0.7,0.8-1.2,1.4-1.6c0.6-0.4,1.4-0.6,2.2-0.6
		C84.7,49.5,85.6,49.8,86.3,50.4z"/>
	<path d="M98.6,55h-7.8c0.1,1.2,0.4,2.1,1.1,2.8c0.6,0.7,1.5,1,2.6,1c0.8,0,1.4-0.2,2-0.5s1-0.8,1.2-1.3l0.8,0.4
		c-0.4,0.7-0.9,1.3-1.6,1.6c-0.7,0.4-1.5,0.6-2.4,0.6c-1.4,0-2.6-0.4-3.4-1.3c-0.8-0.9-1.2-2.1-1.2-3.7c0-1.6,0.4-2.8,1.2-3.7
		c0.8-0.9,1.9-1.3,3.3-1.3c1.3,0,2.4,0.4,3.1,1.3c0.8,0.9,1.1,2.1,1.1,3.5C98.6,54.5,98.6,54.8,98.6,55z M91.8,51.3
		c-0.6,0.7-1,1.6-1,2.8h6.9c-0.1-1.2-0.4-2.1-1-2.8s-1.4-1-2.4-1S92.4,50.7,91.8,51.3z"/>
	<path d="M106.5,49.8l-0.3,0.9c-0.3-0.2-0.7-0.4-1.2-0.4s-1,0.2-1.4,0.5s-0.8,0.7-1.1,1.3c-0.3,0.6-0.4,1.2-0.4,1.8v5.5h-1v-9.8h0.8
		l0.1,2c0.3-0.7,0.7-1.2,1.2-1.6c0.5-0.4,1.2-0.6,1.9-0.6C105.8,49.5,106.2,49.6,106.5,49.8z"/>
	<path d="M122.4,58.7l-0.1,0.8c-0.2,0.1-0.6,0.2-1,0.2c-0.5,0-0.8-0.1-1.1-0.4c-0.3-0.2-0.4-0.7-0.5-1.3c-0.3,0.5-0.8,0.9-1.4,1.2
		s-1.4,0.4-2.1,0.4c-1,0-1.7-0.2-2.3-0.6c-0.6-0.4-0.9-1-0.9-1.8c0-1.5,1.2-2.5,3.7-2.9l3-0.5v-0.9c0-0.8-0.2-1.4-0.7-1.8
		c-0.5-0.4-1.1-0.7-2-0.7c-1.5,0-2.6,0.7-3.1,2.1l-0.7-0.5c0.3-0.8,0.8-1.4,1.4-1.8c0.7-0.4,1.5-0.6,2.4-0.6c1.1,0,2,0.3,2.7,0.8
		c0.6,0.6,1,1.4,1,2.4v5c0,0.7,0.3,1,0.9,1C122,58.8,122.2,58.7,122.4,58.7z M118,58.5c0.5-0.2,1-0.5,1.3-0.8
		c0.3-0.4,0.5-0.8,0.5-1.3v-1.8l-2.7,0.5c-1.1,0.2-1.8,0.5-2.3,0.8c-0.5,0.4-0.7,0.8-0.7,1.3s0.2,0.9,0.6,1.2s1,0.4,1.7,0.4
		C116.9,58.8,117.5,58.7,118,58.5z"/>
	<path d="M131.5,50.4c0.7,0.6,1,1.5,1,2.7v6.3h-1v-6c0-1-0.3-1.8-0.8-2.3s-1.2-0.8-2.1-0.8c-0.6,0-1.2,0.1-1.7,0.4
		c-0.5,0.3-1,0.7-1.3,1.2s-0.5,1.2-0.5,1.9v5.5h-1v-9.8h0.9v2c0.3-0.7,0.8-1.2,1.4-1.6c0.6-0.4,1.4-0.6,2.2-0.6
		C129.9,49.5,130.8,49.8,131.5,50.4z"/>
	<path d="M144.1,45.2v14.3h-0.9l-0.1-2.2c-0.3,0.7-0.7,1.3-1.4,1.7c-0.6,0.4-1.4,0.6-2.3,0.6c-1.4,0-2.5-0.4-3.3-1.3
		c-0.8-0.9-1.2-2.1-1.2-3.7c0-1.6,0.4-2.8,1.2-3.7s1.9-1.3,3.3-1.3c0.8,0,1.6,0.2,2.2,0.6c0.6,0.4,1.1,1,1.4,1.7v-6.6L144.1,45.2
		L144.1,45.2z M142.1,57.7c0.6-0.7,1-1.6,1-2.8v-0.8c-0.1-1.2-0.4-2.1-1-2.8s-1.4-1-2.5-1s-2,0.4-2.7,1.1c-0.6,0.7-1,1.8-1,3.1
		s0.3,2.3,1,3.1c0.6,0.7,1.5,1.1,2.7,1.1C140.7,58.8,141.5,58.4,142.1,57.7z"/>
	<path d="M161.9,58.7c-0.9,0.6-2,0.9-3.3,0.9c-1.2,0-2.2-0.3-3.1-0.8c-0.9-0.5-1.6-1.3-2-2.3c-0.5-1-0.7-2.2-0.7-3.5
		s0.2-2.5,0.7-3.5s1.2-1.8,2-2.3c0.9-0.5,1.9-0.8,3.1-0.8c2.6,0,4.2,1.1,5,3.2l-1,0.4c-0.3-0.9-0.8-1.6-1.4-2
		c-0.7-0.5-1.5-0.7-2.5-0.7s-1.8,0.2-2.5,0.7s-1.3,1.1-1.7,2s-0.6,1.9-0.6,3.1c0,1.2,0.2,2.2,0.6,3.1c0.4,0.9,1,1.5,1.7,2
		s1.6,0.7,2.5,0.7c1,0,1.9-0.3,2.7-0.8s1.2-1.2,1.5-2.2l1,0.4C163.4,57.3,162.8,58.1,161.9,58.7z"/>
	<path d="M171.5,49.8l-0.3,0.9c-0.3-0.2-0.7-0.4-1.2-0.4s-1,0.2-1.4,0.5s-0.8,0.7-1.1,1.3s-0.4,1.2-0.4,1.8v5.5h-1v-9.8h0.8l0.1,2
		c0.3-0.7,0.7-1.2,1.2-1.6c0.5-0.4,1.2-0.6,1.9-0.6C170.8,49.5,171.2,49.6,171.5,49.8z"/>
	<path d="M181,55h-7.8c0.1,1.2,0.4,2.1,1.1,2.8c0.6,0.7,1.5,1,2.6,1c0.8,0,1.4-0.2,2-0.5s1-0.8,1.2-1.3l0.8,0.4
		c-0.4,0.7-0.9,1.3-1.6,1.6c-0.7,0.4-1.5,0.6-2.4,0.6c-1.4,0-2.6-0.4-3.4-1.3c-0.8-0.9-1.2-2.1-1.2-3.7c0-1.6,0.4-2.8,1.2-3.7
		s1.9-1.3,3.3-1.3c1.3,0,2.4,0.4,3.1,1.3c0.8,0.9,1.1,2.1,1.1,3.5C181,54.5,181,54.8,181,55z M174.3,51.3c-0.6,0.7-1,1.6-1,2.8h6.9
		c-0.1-1.2-0.4-2.1-1-2.8s-1.4-1-2.4-1C175.7,50.3,174.9,50.7,174.3,51.3z"/>
	<path d="M192.2,58.7l-0.1,0.8c-0.2,0.1-0.6,0.2-1,0.2c-0.5,0-0.8-0.1-1.1-0.4c-0.3-0.2-0.4-0.7-0.5-1.3c-0.3,0.5-0.8,0.9-1.4,1.2
		c-0.7,0.3-1.4,0.4-2.1,0.4c-1,0-1.7-0.2-2.3-0.6c-0.6-0.4-0.9-1-0.9-1.8c0-1.5,1.2-2.5,3.7-2.9l3-0.5v-0.9c0-0.8-0.2-1.4-0.7-1.8
		c-0.5-0.4-1.1-0.7-2-0.7c-1.5,0-2.6,0.7-3.1,2.1L183,52c0.3-0.8,0.8-1.4,1.4-1.8c0.7-0.4,1.5-0.6,2.4-0.6c1.1,0,2,0.3,2.7,0.8
		c0.6,0.6,1,1.4,1,2.4v5c0,0.7,0.3,1,0.9,1C191.8,58.8,192,58.7,192.2,58.7z M187.8,58.5c0.5-0.2,1-0.5,1.3-0.8
		c0.3-0.4,0.5-0.8,0.5-1.3v-1.8l-2.7,0.5c-1.1,0.2-1.8,0.5-2.3,0.8c-0.5,0.4-0.7,0.8-0.7,1.3s0.2,0.9,0.6,1.2s1,0.4,1.7,0.4
		C186.7,58.8,187.2,58.7,187.8,58.5z"/>
	<path d="M199.1,58.8c-0.3,0.3-0.6,0.5-1,0.6s-0.8,0.2-1.2,0.2c-0.8,0-1.4-0.2-1.9-0.7c-0.4-0.4-0.7-1.1-0.7-2v-6.5h-2v-0.8h2v-2.4
		l1-0.3v2.7h3.7v0.8h-3.7v6.3c0,0.6,0.1,1.1,0.4,1.4c0.3,0.3,0.7,0.5,1.3,0.5c0.7,0,1.2-0.2,1.7-0.7L199.1,58.8z"/>
	<path d="M200.8,47.6c-0.2-0.1-0.2-0.3-0.2-0.6c0-0.2,0.1-0.4,0.2-0.6c0.1-0.1,0.3-0.2,0.6-0.2c0.2,0,0.4,0.1,0.6,0.2
		c0.1,0.1,0.2,0.3,0.2,0.6c0,0.2-0.1,0.4-0.2,0.6c-0.1,0.1-0.3,0.2-0.6,0.2S200.9,47.7,200.8,47.6z M201.8,59.4h-1v-9.8h1V59.4z"/>
	<path d="M212.9,49.7l-4.1,9.8h-1l-4.1-9.8h1.1l3.5,8.8l3.5-8.8H212.9z"/>
	<path d="M222.7,55h-7.8c0.1,1.2,0.4,2.1,1.1,2.8c0.6,0.7,1.5,1,2.6,1c0.8,0,1.4-0.2,2-0.5s1-0.8,1.2-1.3l0.8,0.4
		c-0.4,0.7-0.9,1.3-1.6,1.6c-0.7,0.4-1.5,0.6-2.4,0.6c-1.4,0-2.6-0.4-3.4-1.3c-0.8-0.9-1.2-2.1-1.2-3.7c0-1.6,0.4-2.8,1.2-3.7
		s1.9-1.3,3.3-1.3c1.3,0,2.4,0.4,3.1,1.3c0.8,0.9,1.1,2.1,1.1,3.5C222.7,54.5,222.7,54.8,222.7,55z M216,51.3c-0.6,0.7-1,1.6-1,2.8
		h6.9c-0.1-1.2-0.4-2.1-1-2.8s-1.4-1-2.4-1C217.4,50.3,216.6,50.7,216,51.3z"/>
	<path d="M240.3,48.2c1.1,1.1,1.7,2.7,1.7,4.7c0,2.1-0.6,3.7-1.7,4.9c-1.1,1.1-2.7,1.7-4.8,1.7h-4.1V46.6h4.1
		C237.7,46.6,239.2,47.1,240.3,48.2z M239.6,57.1c0.9-1,1.4-2.4,1.4-4.2c0-1.7-0.5-3.1-1.4-4s-2.2-1.4-4-1.4h-3.2v11.1h3.2
		C237.4,58.5,238.7,58.1,239.6,57.1z"/>
	<path d="M244.6,47.6c-0.2-0.1-0.2-0.3-0.2-0.6c0-0.2,0.1-0.4,0.2-0.6c0.1-0.1,0.3-0.2,0.6-0.2c0.2,0,0.4,0.1,0.6,0.2
		c0.1,0.1,0.2,0.3,0.2,0.6c0,0.2-0.1,0.4-0.2,0.6c-0.1,0.1-0.3,0.2-0.6,0.2C245,47.8,244.8,47.7,244.6,47.6z M245.7,59.4h-1v-9.8h1
		V59.4z"/>
	<path d="M254.3,49.8l-0.3,0.9c-0.3-0.2-0.7-0.4-1.2-0.4s-1,0.2-1.4,0.5s-0.8,0.7-1.1,1.3s-0.4,1.2-0.4,1.8v5.5h-1v-9.8h0.8l0.1,2
		c0.3-0.7,0.7-1.2,1.2-1.6c0.5-0.4,1.2-0.6,1.9-0.6C253.6,49.5,254,49.6,254.3,49.8z"/>
	<path d="M263.8,55H256c0.1,1.2,0.4,2.1,1.1,2.8c0.6,0.7,1.5,1,2.6,1c0.8,0,1.4-0.2,2-0.5s1-0.8,1.2-1.3l0.8,0.4
		c-0.4,0.7-0.9,1.3-1.6,1.6c-0.7,0.4-1.5,0.6-2.4,0.6c-1.4,0-2.6-0.4-3.4-1.3c-0.8-0.9-1.2-2.1-1.2-3.7c0-1.6,0.4-2.8,1.2-3.7
		c0.8-0.9,1.9-1.3,3.3-1.3c1.3,0,2.4,0.4,3.1,1.3c0.8,0.9,1.1,2.1,1.1,3.5C263.8,54.5,263.8,54.8,263.8,55z M257.1,51.3
		c-0.6,0.7-1,1.6-1,2.8h6.9c-0.1-1.2-0.4-2.1-1-2.8s-1.4-1-2.4-1C258.5,50.3,257.7,50.7,257.1,51.3z"/>
	<path d="M272.9,50.2c0.7,0.5,1.2,1.1,1.5,1.9l-0.9,0.4c-0.2-0.7-0.6-1.3-1.1-1.6c-0.5-0.4-1.2-0.6-2-0.6c-1.1,0-2,0.4-2.7,1.1
		c-0.6,0.7-1,1.8-1,3.1s0.3,2.4,0.9,3.1c0.6,0.7,1.5,1.1,2.6,1.1c0.8,0,1.5-0.2,2.1-0.6c0.6-0.4,0.9-1,1.1-1.7l0.9,0.3
		c-0.3,0.9-0.8,1.6-1.5,2.1s-1.6,0.8-2.6,0.8c-1.4,0-2.6-0.4-3.4-1.3s-1.2-2.1-1.2-3.7c0-1.6,0.4-2.8,1.2-3.7
		c0.8-0.9,1.9-1.3,3.4-1.3C271.4,49.5,272.2,49.7,272.9,50.2z"/>
	<path d="M282.3,58.8c-0.3,0.3-0.6,0.5-1,0.6s-0.8,0.2-1.2,0.2c-0.8,0-1.4-0.2-1.9-0.7c-0.4-0.4-0.7-1.1-0.7-2v-6.5h-2v-0.8h2v-2.4
		l1-0.3v2.7h3.7v0.8h-3.7v6.3c0,0.6,0.1,1.1,0.4,1.4c0.3,0.3,0.7,0.5,1.3,0.5c0.7,0,1.2-0.2,1.7-0.7L282.3,58.8z"/>
	<path d="M291.5,50.8c0.8,0.9,1.2,2.1,1.2,3.7c0,1.6-0.4,2.8-1.2,3.7c-0.8,0.9-2,1.4-3.4,1.4s-2.6-0.5-3.4-1.4s-1.2-2.1-1.2-3.7
		c0-1.6,0.4-2.8,1.2-3.7c0.8-0.9,2-1.4,3.4-1.4C289.5,49.5,290.6,49.9,291.5,50.8z M285.4,51.5c-0.7,0.8-1,1.8-1,3.1s0.3,2.3,1,3.1
		s1.5,1.1,2.7,1.1c1.1,0,2-0.4,2.7-1.1c0.7-0.8,1-1.8,1-3.1s-0.3-2.3-1-3.1s-1.5-1.1-2.7-1.1C286.9,50.3,286,50.7,285.4,51.5z"/>
	<path d="M300.7,49.8l-0.3,0.9c-0.3-0.2-0.7-0.4-1.2-0.4s-1,0.2-1.4,0.5s-0.8,0.7-1.1,1.3c-0.3,0.6-0.4,1.2-0.4,1.8v5.5h-1v-9.8h0.8
		l0.1,2c0.3-0.7,0.7-1.2,1.2-1.6c0.5-0.4,1.2-0.6,1.9-0.6C300,49.5,300.4,49.6,300.7,49.8z"/>
</g>
</svg>
