<?xml version="1.0" encoding="utf-8"?>
<!-- Generator: Adobe Illustrator 25.4.1, SVG Export Plug-In . SVG Version: 6.00 Build 0)  -->
<svg version="1.1" id="Ebene_1" xmlns="http://www.w3.org/2000/svg" xmlns:xlink="http://www.w3.org/1999/xlink" x="0px" y="0px"
	 viewBox="0 0 279.3 33.8" style="enable-background:new 0 0 279.3 33.8;" xml:space="preserve">
<style type="text/css">
	.st0{fill:#2E2113;}
</style>
<g>
	<path class="st0" d="M23.3,12.4c0-1.1-0.3-2.5-0.3-4c0-1.1,0.3-3.6,0.3-5.7c0-0.7-0.5-1.1-1.5-1.1C18.6,1.6,14.6,2,11.5,2
		s-7-0.4-10.3-0.4c-1,0-1.5,0.4-1.5,1.1C-0.3,4.8,0,7.2,0,8.4c0,1.4-0.3,2.9-0.3,4c0,0.6,0.4,1,0.6,1s0.6-0.4,0.6-1.1
		c0-1-0.2-2.5-0.2-3.8c0-5.2,0-5.5,3.1-5.5h5.1c1.6,0,1.8,0,1.8,1.8v17.8c0,6.7,0,7.7-2.3,7.7c-0.9,0-1.5-0.2-2.4-0.2
		c-0.4,0-0.9,0.2-0.9,0.6s0.5,0.5,0.9,0.5c1.3,0,3.1-0.3,5.2-0.3s3.9,0.3,5.2,0.3c0.4,0,0.9-0.2,0.9-0.5c0-0.4-0.5-0.5-0.9-0.5
		c-0.8,0-1.4,0.2-2.4,0.2c-2.3,0-2.3-1-2.3-7.7V4.9C12.1,3,12.1,3,14,3h5.1c3.1,0,3.1,0.3,3.1,5.5c0,1.3-0.2,2.9-0.2,3.8
		c0,0.7,0.4,1.1,0.6,1.1S23.3,13,23.3,12.4"/>
	<path class="st0" d="M48.6,25.4c0-0.9-0.1-1.3-0.5-1.3s-0.7,0.3-0.5,3.3c0.2,2.4-1.3,3.4-2.3,3.4c-2.4,0-2.4-2.1-2.4-6v-8.5
		c0-4.1-1.7-7.4-7.6-7.4c-4.9,0-7.7,2.8-7.7,5.7c0,1.3,1.1,2.5,2.4,2.6c1,0,2-0.7,2-1.8l0,0c0.1-0.7-0.4-1.3-1.2-1.3h-0.1
		c-1,0-1.3,1.2-1.5,1.2s-0.4-0.4-0.4-0.7c0-2.3,2.4-4.5,6.7-4.5c4.8,0,6.2,3,6.2,4.9c0,4.1-4.3,4.4-6.7,4.5
		c-5.2,0.2-8.7,1.7-8.7,6.7c0,3.2,2.9,5.9,6.9,5.9c5.3,0,7.3-3,8.5-4.9h0.1c0.2,2.6,0.4,4.9,3.4,4.9C48,31.7,48.6,29.3,48.6,25.4"/>
	<path class="st0" d="M77,30.8c0-0.4-0.4-0.5-0.9-0.5s-1.4,0.2-2.1,0.2c-2.4,0-2.4-0.8-2.4-7.3v-4.5c0-5.5-1.3-9.6-8-9.6
		c-5.4,0-7.2,3.2-7.9,4.7h-0.1v-3.6c0-0.5,0-0.9-0.7-0.9s-1,0.2-2.3,0.2c-1.6,0-2.3-0.2-2.7-0.2c-0.5,0-0.7,0.3-0.7,0.5
		s0.3,0.5,0.8,0.5s2-0.2,2.8-0.2c1.6,0,1.7,0.3,1.7,5.7v7c0,6.5,0,7.3-2.4,7.3c-0.6,0-1.5-0.2-2.1-0.2s-0.9,0.2-0.9,0.5
		s0.4,0.5,0.8,0.5c1.3,0,3.4-0.3,5-0.3s3.9,0.3,5.1,0.3c0.4,0,0.8-0.2,0.8-0.5s-0.4-0.5-0.9-0.5s-1.3,0.2-2.1,0.2
		c-2.3,0-2.3-0.8-2.3-7.3v-4.3c0-5.4,2.7-8.7,7.8-8.7c6,0,7,3.8,7,8.8V23c0,6.5,0,7.3-2.4,7.3c-0.6,0-1.5-0.2-2.1-0.2
		s-0.9,0.2-0.9,0.5c0,0.4,0.4,0.5,0.8,0.5c1.3,0,3.4-0.3,5-0.3s3.9,0.3,5.1,0.3C76.5,31.3,77,31.1,77,30.8"/>
	<path class="st0" d="M85.1,4.5c0-0.8-0.7-1.5-1.5-1.5S82,3.7,82,4.5l0,0C82,5.3,82.7,6,83.5,6S85.1,5.3,85.1,4.5L85.1,4.5"/>
	<path class="st0" d="M89.8,30.8c0-0.4-0.4-0.5-0.9-0.5s-1.4,0.2-2.1,0.2c-2.4,0-2.4-0.8-2.4-7.3v-13c0-0.5,0-0.9-0.7-0.9
		s-1,0.2-2.4,0.2c-1.6,0-2.3-0.2-2.7-0.2c-0.5,0-0.7,0.3-0.7,0.5s0.3,0.5,0.8,0.5s2-0.2,2.8-0.2c1.6,0,1.7,0.3,1.7,5.7v7
		c0,6.5,0,7.3-2.4,7.3c-0.6,0-1.5-0.2-2.1-0.2c-0.5,0-0.9,0.2-0.9,0.5s0.4,0.5,0.8,0.5c1.3,0,3.4-0.3,5-0.3s3.9,0.3,5.1,0.3
		C89.4,31.3,89.8,31.1,89.8,30.8"/>
	<path class="st0" d="M113.8,25.4c0-0.9-0.1-1.3-0.5-1.3s-0.7,0.3-0.5,3.3c0.2,2.4-1.3,3.4-2.3,3.4c-2.4,0-2.4-2.1-2.4-6v-8.5
		c0-4.1-1.7-7.4-7.6-7.4c-4.9,0-7.7,2.8-7.7,5.7c0,1.3,1.1,2.5,2.5,2.6c1,0,2-0.7,2-1.8l0,0c0.1-0.7-0.4-1.3-1.2-1.3H96
		c-1,0-1.3,1.2-1.5,1.2s-0.4-0.4-0.4-0.7c0-2.3,2.4-4.5,6.7-4.5c4.9,0,6.2,3,6.2,4.9c0,4.1-4.3,4.4-6.7,4.5
		c-5.2,0.2-8.7,1.7-8.7,6.7c0,3.2,3,5.9,6.9,5.9c5.3,0,7.3-3,8.5-4.9h0.1c0.2,2.6,0.4,4.9,3.4,4.9C113.3,31.7,113.8,29.1,113.8,25.4
		"/>
	<path class="st0" d="M153.6,29.9c0-1.3-0.3-2.6-0.3-4.2c0-1.3,0.3-2.8,0.3-4.1c0-0.7-0.4-1.1-0.6-1.1s-0.6,0.5-0.6,1.3
		c0,1.3,0.2,3,0.2,4.7c0,3.9-0.6,3.9-5.5,3.9h-8.5c-2.5,0-2.9,0-2.9-2.8v-9.2c0-1.4,0-1.8,1.5-1.8h4.8c2.6,0,3.4,0.6,3.4,3
		c0,1.2-0.2,2.4-0.2,3.5s0.3,1.4,0.6,1.4s0.5-0.4,0.5-1.3c0-1.4-0.3-5.1-0.3-7.1c0-1.3,0.3-4.4,0.3-5.7c0-0.7-0.2-1.3-0.5-1.3
		s-0.6,0.3-0.6,1.2s0.2,2.1,0.2,3.1c0,2.1-1.4,2.4-3.4,2.4h-4.5c-1.8,0-1.8-0.2-1.8-1.8V7.4c0-4.1,0.4-4.1,2.6-4.1h9.4
		c3.8,0,4.4,0,4.4,3.5c0,1-0.2,4.6-0.2,5.7c0,0.8,0,1.5,0.6,1.5s0.7-0.9,0.7-1.5c0-1.1-0.3-2.6-0.3-4.3c0-1.4,0.3-2.9,0.3-4.6
		c0-1.2-0.6-1.3-1.6-1.3c-1.7,0-4.6,0.1-7.6,0.1c-3.1,0-6.4,0.2-8.9,0.2c-0.9,0-1.8-0.1-2.8-0.2c-0.9-0.1-1.7-0.2-2.6-0.2
		s-1,0.4-1,0.6c0,0.2,0.4,0.6,1,0.6c0.8,0,1.8-0.2,2.9-0.2c1.6,0,1.8,0.6,1.8,3.7V26c0,3.6,0,4.4-1.8,4.4c-1.1,0-2-0.2-2.9-0.2
		c-0.6,0-1,0.3-1,0.7s0.6,0.6,1.2,0.6c0.6,0,1-0.1,1.5-0.2c0.6,0,1.4-0.1,2.6-0.1c3.2,0,6.7,0.1,9.8,0.1s5.9,0.2,7.7,0.2
		C152.6,31.3,153.6,31.2,153.6,29.9"/>
	<path class="st0" d="M168.7,30.8c0-0.4-0.4-0.5-0.9-0.5s-1.4,0.2-2.1,0.2c-2.4,0-2.4-0.8-2.4-7.3V2.1c0-0.5,0-0.9-0.7-0.9
		s-1,0.2-2.4,0.2c-1.6,0-2.3-0.2-2.7-0.2s-0.7,0.3-0.7,0.5s0.3,0.5,0.8,0.5s2-0.2,2.8-0.2c1.6,0,1.7,0.3,1.7,5.8v15.3
		c0,6.5,0,7.3-2.4,7.3c-0.6,0-1.5-0.2-2.1-0.2c-0.5,0-0.9,0.2-0.9,0.5c0,0.4,0.4,0.5,0.8,0.5c1.3,0,3.3-0.3,5-0.3s3.8,0.3,5.1,0.3
		C168.2,31.3,168.7,31.1,168.7,30.8"/>
	<path class="st0" d="M189.1,24.4c0-0.5-0.2-0.8-0.6-0.8s-0.4,0.4-0.5,1.1c0,0.5-0.8,6.1-7.4,6.1c-5.8,0-8.9-4.2-8.9-10.3
		c0-6.8,3.8-10.7,9.2-10.7c4.9,0,6.8,3.3,6.8,5.3c0,0.6-0.3,1.3-0.6,1.3s-0.5-0.7-1.3-0.7c-0.7,0-1.3,0.5-1.3,1.3l0,0
		c0,0.9,0.7,1.5,1.5,1.6c0,0,0,0,0.1,0c1.3,0,2.7-1.1,2.7-3.2c0-3.5-3.2-6.5-7.9-6.5c-6.6,0-10.3,5-10.3,11.6
		c0,5.3,3,11.2,10.3,11.2C187.5,31.7,188.9,26.3,189.1,24.4"/>
	<path class="st0" d="M212.4,20.2c0-6.1-3.9-11.3-10.2-11.3s-10.3,5.2-10.3,11.3s3.9,11.4,10.3,11.4
		C208.6,31.7,212.4,26.4,212.4,20.2"/>
	<path class="st0" d="M255.3,30.8c0-0.4-0.4-0.5-0.9-0.5s-1.3,0.2-2.1,0.2c-2.4,0-2.4-0.8-2.4-7.3v-7.3c0-3.3-1.6-6.8-7.2-6.8
		c-3.2-0.2-6.3,1.8-7.4,4.9c-0.7-2.1-1.8-4.9-7-4.9c-4.9,0-6.5,3.1-6.9,4.2h-0.1v-3.1c0-0.5,0-0.9-0.7-0.9s-1,0.2-2.4,0.2
		c-1.6,0-2.3-0.2-2.7-0.2c-0.5,0-0.7,0.3-0.7,0.5s0.3,0.5,0.8,0.5s2-0.2,2.8-0.2c1.6,0,1.7,0.3,1.7,5.7v7c0,6.5,0,7.3-2.4,7.3
		c-0.6,0-1.5-0.2-2.1-0.2c-0.5,0-0.9,0.2-0.9,0.5s0.4,0.5,0.8,0.5c1.3,0,3.3-0.3,5-0.3s3.8,0.3,5.1,0.3c0.4,0,0.8-0.2,0.8-0.5
		s-0.4-0.5-0.9-0.5s-1.4,0.2-2.1,0.2c-2.4,0-2.4-0.8-2.4-7.3v-5.1c0-5.2,2.7-7.9,7-7.9c5.8,0,6.2,4.3,6.2,7.5V23
		c0,6.5,0,7.3-2.4,7.3c-0.6,0-1.5-0.2-2.1-0.2c-0.5,0-0.9,0.2-0.9,0.6s0.4,0.5,0.8,0.5c1.3,0,3.3-0.3,5-0.3s3.8,0.3,5.1,0.3
		c0.4,0,0.8-0.2,0.8-0.5c0-0.4-0.4-0.5-0.9-0.5s-1.3,0.2-2.1,0.2c-2.3,0-2.3-0.8-2.3-7.3v-4.4c0-6.2,2.7-8.8,7-8.8
		c5.4,0,6.2,3.5,6.2,7.1v6.2c0,6.5,0,7.3-2.3,7.3c-0.6,0-1.5-0.2-2.1-0.2c-0.5,0-0.9,0.2-0.9,0.5c0,0.4,0.4,0.5,0.8,0.5
		c1.3,0,3.4-0.3,5-0.3s3.8,0.3,5.1,0.3C254.9,31.3,255.4,31.1,255.3,30.8"/>
	<path class="st0" d="M275.7,19.6c0.3-0.3,0.4-0.6,0.3-0.9c0-3.6-2.5-9.7-9.2-9.7c-6,0-10.1,4.9-10.1,11.6c0,4.9,2.5,11.1,9.8,11.1
		c4.5,0.2,8.5-3.1,9.1-7.6c0-0.3-0.1-0.6-0.5-0.6s-0.5,0.6-0.9,1.8c-0.5,2.5-3.1,5.4-7.8,5.4c-6.1,0-8.5-5.2-8.5-9.9
		c0-0.9,0.1-1.1,0.9-1.1H274C274.6,20,275.3,19.9,275.7,19.6L275.7,19.6"/>
</g>
</svg>
