<?xml version="1.0" encoding="utf-8"?>
<!-- Generator: Adobe Illustrator 25.4.0, SVG Export Plug-In . SVG Version: 6.00 Build 0)  -->
<svg version="1.1" id="Ebene_1" xmlns="http://www.w3.org/2000/svg" xmlns:xlink="http://www.w3.org/1999/xlink" x="0px" y="0px"
	 viewBox="0 0 32 32" style="enable-background:new 0 0 32 32;" xml:space="preserve">
<style type="text/css">
	.st0{fill:#FFFFFF;}
	.st1{fill:#34444C;}
</style>
<rect x="4.5" y="3.4" class="st0" width="24.2" height="24.2"/>
<path class="st1" d="M25.2,0H6.7C2.9,0,0,2.9,0,6.7v18.6C0,29,2.9,32,6.7,32h18.6c3.7,0,6.7-2.9,6.7-6.7V6.7C31.9,2.9,29,0,25.2,0z
	 M10.7,25.2h-4V10.7h4V25.2z M8.7,8.9c-1.3,0-2.4-1.1-2.4-2.4s1.1-2.4,2.4-2.4S11,5.3,11,6.6S10,8.9,8.7,8.9z M26.6,25.2h-4v-7.5
	c0-4.5-5.3-4.1-5.3,0v7.5h-4V10.7h4v2.4c1.9-3.5,9.3-3.7,9.3,3.3C26.6,16.4,26.6,25.2,26.6,25.2z"/>
</svg>
