<?xml version="1.0" encoding="utf-8"?>
<!-- Generator: Adobe Illustrator 25.3.1, SVG Export Plug-In . SVG Version: 6.00 Build 0)  -->
<svg version="1.1" id="Ebene_1" xmlns="http://www.w3.org/2000/svg" xmlns:xlink="http://www.w3.org/1999/xlink" x="0px" y="0px"
	 viewBox="0 0 32 32" style="enable-background:new 0 0 32 32;" xml:space="preserve">
<style type="text/css">
	.st0{fill:#2867B2;}
</style>
<path class="st0" d="M25.3,0H6.7C2.9,0,0,2.9,0,6.7v18.7c0,3.7,2.9,6.7,6.7,6.7h18.7c3.7,0,6.7-2.9,6.7-6.7V6.7
	C32,2.9,29.1,0,25.3,0z M10.7,25.3h-4V10.7h4V25.3z M8.7,8.9c-1.3,0-2.4-1.1-2.4-2.4s1.1-2.4,2.4-2.4S11,5.3,11,6.6S10,8.9,8.7,8.9z
	 M26.7,25.3h-4v-7.5c0-4.5-5.3-4.1-5.3,0v7.5h-4V10.7h4v2.4c1.9-3.5,9.3-3.7,9.3,3.3V25.3z"/>
</svg>
