<?xml version="1.0" encoding="utf-8"?>
<!-- Generator: Adobe Illustrator 25.4.0, SVG Export Plug-In . SVG Version: 6.00 Build 0)  -->
<svg version="1.1" id="Ebene_1" xmlns="http://www.w3.org/2000/svg" xmlns:xlink="http://www.w3.org/1999/xlink" x="0px" y="0px"
	 viewBox="0 0 32 32" style="enable-background:new 0 0 32 32;" xml:space="preserve">
<style type="text/css">
	.st0{fill:#34444C;}
	.st1{fill:#FFFFFF;}
	.st2{opacity:0.7;fill:#FFFFFF;enable-background:new    ;}
</style>
<path class="st0" d="M32,27.6c0,2.5-2,4.4-4.4,4.4H4.4C2,32,0,30,0,27.6V4.4C0,2,2,0,4.4,0h23.1C30,0,32,2,32,4.4V27.6z"/>
<path class="st1" d="M9.5,21.3H5.9c-0.2,0-0.4-0.1-0.5-0.2c-0.1-0.2-0.1-0.4,0-0.5l3.8-6.7l0,0L6.8,9.7c-0.1-0.2-0.1-0.4,0-0.5
	C6.9,9,7,8.9,7.3,8.9h3.6c0.6,0,0.8,0.4,1,0.7l2.5,4.3c-0.1,0.3-3.9,6.8-3.9,6.8C10.3,21,10,21.3,9.5,21.3z"/>
<path class="st2" d="M26.6,5.2l-7.9,14.1l0,0l5.1,9.2c0.1,0.2,0.1,0.4,0,0.6c-0.1,0.1-0.3,0.2-0.5,0.2h-3.6c-0.5,0-0.8-0.4-1-0.7
	c0,0-5.1-9.3-5.1-9.4c0.3-0.4,8-14.2,8-14.2c0.2-0.3,0.4-0.7,1-0.7h3.6c0.2,0,0.4,0.1,0.5,0.2C26.7,4.8,26.7,5,26.6,5.2z"/>
</svg>
